<?xml version="1.0" encoding="UTF-8" standalone="no"?>
<!DOCTYPE svg PUBLIC "-//W3C//DTD SVG 1.1//EN"
 "http://www.w3.org/Graphics/SVG/1.1/DTD/svg11.dtd">
<!-- Generated by graphviz version 2.43.0 (0)
 -->
<!-- Title: /home/reese/1&#45;edgeai/1&#45;ti&#45;tools/edgeai&#45;tidl&#45;tools/model&#45;artifacts/fastdepth/artifacts/tempDir/runtimes_visualization.svg Pages: 1 -->
<svg width="1094pt" height="2359pt"
 viewBox="0.00 0.00 1094.00 2358.80" xmlns="http://www.w3.org/2000/svg" xmlns:xlink="http://www.w3.org/1999/xlink">
<g id="graph0" class="graph" transform="scale(1 1) rotate(0) translate(468 2344.4)">
<title>/home/reese/1&#45;edgeai/1&#45;ti&#45;tools/edgeai&#45;tidl&#45;tools/model&#45;artifacts/fastdepth/artifacts/tempDir/runtimes_visualization.svg</title>
<polygon fill="white" stroke="transparent" points="-468,14.4 -468,-2344.4 626,-2344.4 626,14.4 -468,14.4"/>
<g id="clust1" class="cluster">
<title>cluster_0</title>
<path fill="none" stroke="#375588" stroke-width="2" d="M20,-27C20,-27 138,-27 138,-27 144,-27 150,-33 150,-39 150,-39 150,-2291 150,-2291 150,-2297 144,-2303 138,-2303 138,-2303 20,-2303 20,-2303 14,-2303 8,-2297 8,-2291 8,-2291 8,-39 8,-39 8,-33 14,-27 20,-27"/>
</g>
<!-- Name : Conv_0
Info :  -->
<g id="node1" class="node">
<title>Name : Conv_0
Info : </title>
<path fill="#375588" stroke="#000000" d="M124.67,-2295C124.67,-2295 83.33,-2295 83.33,-2295 80.17,-2295 77,-2291.83 77,-2288.67 77,-2288.67 77,-2282.33 77,-2282.33 77,-2279.17 80.17,-2276 83.33,-2276 83.33,-2276 124.67,-2276 124.67,-2276 127.83,-2276 131,-2279.17 131,-2282.33 131,-2282.33 131,-2288.67 131,-2288.67 131,-2291.83 127.83,-2295 124.67,-2295"/>
<text text-anchor="middle" x="104" y="-2283" font-family="Times,serif" font-size="10.00" fill="#ffffff">0:Conv</text>
</g>
<!-- Name : Clip_3
Info :  -->
<g id="node2" class="node">
<title>Name : Clip_3
Info : </title>
<path fill="#375588" stroke="#000000" d="M124.67,-2268C124.67,-2268 83.33,-2268 83.33,-2268 80.17,-2268 77,-2264.83 77,-2261.67 77,-2261.67 77,-2255.33 77,-2255.33 77,-2252.17 80.17,-2249 83.33,-2249 83.33,-2249 124.67,-2249 124.67,-2249 127.83,-2249 131,-2252.17 131,-2255.33 131,-2255.33 131,-2261.67 131,-2261.67 131,-2264.83 127.83,-2268 124.67,-2268"/>
<text text-anchor="middle" x="104" y="-2256" font-family="Times,serif" font-size="10.00" fill="#ffffff">1:Clip</text>
</g>
<!-- Name : Conv_0
Info : &#45;&gt;Name : Clip_3
Info :  -->
<g id="edge1" class="edge">
<title>Name : Conv_0
Info : &#45;&gt;Name : Clip_3
Info : </title>
<path fill="none" stroke="black" stroke-width="0.7" d="M104,-2275.76C104,-2274.98 104,-2274.19 104,-2273.38"/>
<polygon fill="black" stroke="black" stroke-width="0.7" points="104,-2268.11 106.25,-2273.11 104,-2270.61 104,-2273.11 104,-2273.11 104,-2273.11 104,-2270.61 101.75,-2273.11 104,-2268.11 104,-2268.11"/>
</g>
<!-- Name : Conv_4
Info :  -->
<g id="node3" class="node">
<title>Name : Conv_4
Info : </title>
<path fill="#375588" stroke="#000000" d="M124.67,-2241C124.67,-2241 83.33,-2241 83.33,-2241 80.17,-2241 77,-2237.83 77,-2234.67 77,-2234.67 77,-2228.33 77,-2228.33 77,-2225.17 80.17,-2222 83.33,-2222 83.33,-2222 124.67,-2222 124.67,-2222 127.83,-2222 131,-2225.17 131,-2228.33 131,-2228.33 131,-2234.67 131,-2234.67 131,-2237.83 127.83,-2241 124.67,-2241"/>
<text text-anchor="middle" x="104" y="-2229" font-family="Times,serif" font-size="10.00" fill="#ffffff">2:Conv</text>
</g>
<!-- Name : Clip_3
Info : &#45;&gt;Name : Conv_4
Info :  -->
<g id="edge2" class="edge">
<title>Name : Clip_3
Info : &#45;&gt;Name : Conv_4
Info : </title>
<path fill="none" stroke="black" stroke-width="0.7" d="M104,-2248.76C104,-2247.98 104,-2247.19 104,-2246.38"/>
<polygon fill="black" stroke="black" stroke-width="0.7" points="104,-2241.11 106.25,-2246.11 104,-2243.61 104,-2246.11 104,-2246.11 104,-2246.11 104,-2243.61 101.75,-2246.11 104,-2241.11 104,-2241.11"/>
</g>
<!-- Name : Clip_7
Info :  -->
<g id="node4" class="node">
<title>Name : Clip_7
Info : </title>
<path fill="#375588" stroke="#000000" d="M124.67,-2214C124.67,-2214 83.33,-2214 83.33,-2214 80.17,-2214 77,-2210.83 77,-2207.67 77,-2207.67 77,-2201.33 77,-2201.33 77,-2198.17 80.17,-2195 83.33,-2195 83.33,-2195 124.67,-2195 124.67,-2195 127.83,-2195 131,-2198.17 131,-2201.33 131,-2201.33 131,-2207.67 131,-2207.67 131,-2210.83 127.83,-2214 124.67,-2214"/>
<text text-anchor="middle" x="104" y="-2202" font-family="Times,serif" font-size="10.00" fill="#ffffff">3:Clip</text>
</g>
<!-- Name : Conv_4
Info : &#45;&gt;Name : Clip_7
Info :  -->
<g id="edge3" class="edge">
<title>Name : Conv_4
Info : &#45;&gt;Name : Clip_7
Info : </title>
<path fill="none" stroke="black" stroke-width="0.7" d="M104,-2221.76C104,-2220.98 104,-2220.19 104,-2219.38"/>
<polygon fill="black" stroke="black" stroke-width="0.7" points="104,-2214.11 106.25,-2219.11 104,-2216.61 104,-2219.11 104,-2219.11 104,-2219.11 104,-2216.61 101.75,-2219.11 104,-2214.11 104,-2214.11"/>
</g>
<!-- Name : Conv_8
Info :  -->
<g id="node5" class="node">
<title>Name : Conv_8
Info : </title>
<path fill="#375588" stroke="#000000" d="M124.67,-2187C124.67,-2187 83.33,-2187 83.33,-2187 80.17,-2187 77,-2183.83 77,-2180.67 77,-2180.67 77,-2174.33 77,-2174.33 77,-2171.17 80.17,-2168 83.33,-2168 83.33,-2168 124.67,-2168 124.67,-2168 127.83,-2168 131,-2171.17 131,-2174.33 131,-2174.33 131,-2180.67 131,-2180.67 131,-2183.83 127.83,-2187 124.67,-2187"/>
<text text-anchor="middle" x="104" y="-2175" font-family="Times,serif" font-size="10.00" fill="#ffffff">4:Conv</text>
</g>
<!-- Name : Clip_7
Info : &#45;&gt;Name : Conv_8
Info :  -->
<g id="edge4" class="edge">
<title>Name : Clip_7
Info : &#45;&gt;Name : Conv_8
Info : </title>
<path fill="none" stroke="black" stroke-width="0.7" d="M104,-2194.76C104,-2193.98 104,-2193.19 104,-2192.38"/>
<polygon fill="black" stroke="black" stroke-width="0.7" points="104,-2187.11 106.25,-2192.11 104,-2189.61 104,-2192.11 104,-2192.11 104,-2192.11 104,-2189.61 101.75,-2192.11 104,-2187.11 104,-2187.11"/>
</g>
<!-- Name : Clip_11
Info :  -->
<g id="node6" class="node">
<title>Name : Clip_11
Info : </title>
<path fill="#375588" stroke="#000000" d="M124.67,-2160C124.67,-2160 83.33,-2160 83.33,-2160 80.17,-2160 77,-2156.83 77,-2153.67 77,-2153.67 77,-2147.33 77,-2147.33 77,-2144.17 80.17,-2141 83.33,-2141 83.33,-2141 124.67,-2141 124.67,-2141 127.83,-2141 131,-2144.17 131,-2147.33 131,-2147.33 131,-2153.67 131,-2153.67 131,-2156.83 127.83,-2160 124.67,-2160"/>
<text text-anchor="middle" x="104" y="-2148" font-family="Times,serif" font-size="10.00" fill="#ffffff">5:Clip</text>
</g>
<!-- Name : Conv_8
Info : &#45;&gt;Name : Clip_11
Info :  -->
<g id="edge5" class="edge">
<title>Name : Conv_8
Info : &#45;&gt;Name : Clip_11
Info : </title>
<path fill="none" stroke="black" stroke-width="0.7" d="M104,-2167.76C104,-2166.98 104,-2166.19 104,-2165.38"/>
<polygon fill="black" stroke="black" stroke-width="0.7" points="104,-2160.11 106.25,-2165.11 104,-2162.61 104,-2165.11 104,-2165.11 104,-2165.11 104,-2162.61 101.75,-2165.11 104,-2160.11 104,-2160.11"/>
</g>
<!-- Name : Conv_12
Info :  -->
<g id="node7" class="node">
<title>Name : Conv_12
Info : </title>
<path fill="#375588" stroke="#000000" d="M114.67,-2133C114.67,-2133 73.33,-2133 73.33,-2133 70.17,-2133 67,-2129.83 67,-2126.67 67,-2126.67 67,-2120.33 67,-2120.33 67,-2117.17 70.17,-2114 73.33,-2114 73.33,-2114 114.67,-2114 114.67,-2114 117.83,-2114 121,-2117.17 121,-2120.33 121,-2120.33 121,-2126.67 121,-2126.67 121,-2129.83 117.83,-2133 114.67,-2133"/>
<text text-anchor="middle" x="94" y="-2121" font-family="Times,serif" font-size="10.00" fill="#ffffff">6:Conv</text>
</g>
<!-- Name : Clip_11
Info : &#45;&gt;Name : Conv_12
Info :  -->
<g id="edge6" class="edge">
<title>Name : Clip_11
Info : &#45;&gt;Name : Conv_12
Info : </title>
<path fill="none" stroke="black" stroke-width="0.7" d="M100.5,-2140.76C100.13,-2139.83 99.75,-2138.87 99.36,-2137.9"/>
<polygon fill="black" stroke="black" stroke-width="0.7" points="97.44,-2133.11 101.39,-2136.92 98.37,-2135.43 99.3,-2137.75 99.3,-2137.75 99.3,-2137.75 98.37,-2135.43 97.21,-2138.59 97.44,-2133.11 97.44,-2133.11"/>
</g>
<!-- Name : Add_134
Info :  -->
<g id="node77" class="node">
<title>Name : Add_134
Info : </title>
<path fill="#375588" stroke="#000000" d="M119.67,-243C119.67,-243 78.33,-243 78.33,-243 75.17,-243 72,-239.83 72,-236.67 72,-236.67 72,-230.33 72,-230.33 72,-227.17 75.17,-224 78.33,-224 78.33,-224 119.67,-224 119.67,-224 122.83,-224 126,-227.17 126,-230.33 126,-230.33 126,-236.67 126,-236.67 126,-239.83 122.83,-243 119.67,-243"/>
<text text-anchor="middle" x="99" y="-231" font-family="Times,serif" font-size="10.00" fill="#ffffff">76:Add</text>
</g>
<!-- Name : Clip_11
Info : &#45;&gt;Name : Add_134
Info :  -->
<g id="edge7" class="edge">
<title>Name : Clip_11
Info : &#45;&gt;Name : Add_134
Info : </title>
<path fill="none" stroke="black" stroke-width="0.7" d="M121.36,-2140.92C124.58,-2138.7 127.66,-2136.06 130,-2133 140.03,-2119.88 141,-2114.02 141,-2097.5 141,-2097.5 141,-2097.5 141,-286.5 141,-270.11 141.37,-263.7 131,-251 129.58,-249.26 127.92,-247.68 126.13,-246.25"/>
<polygon fill="black" stroke="black" stroke-width="0.7" points="121.73,-243.19 127.12,-244.2 123.78,-244.62 125.84,-246.05 125.84,-246.05 125.84,-246.05 123.78,-244.62 124.55,-247.9 121.73,-243.19 121.73,-243.19"/>
</g>
<!-- Name : Clip_15
Info :  -->
<g id="node8" class="node">
<title>Name : Clip_15
Info : </title>
<path fill="#375588" stroke="#000000" d="M114.67,-2106C114.67,-2106 73.33,-2106 73.33,-2106 70.17,-2106 67,-2102.83 67,-2099.67 67,-2099.67 67,-2093.33 67,-2093.33 67,-2090.17 70.17,-2087 73.33,-2087 73.33,-2087 114.67,-2087 114.67,-2087 117.83,-2087 121,-2090.17 121,-2093.33 121,-2093.33 121,-2099.67 121,-2099.67 121,-2102.83 117.83,-2106 114.67,-2106"/>
<text text-anchor="middle" x="94" y="-2094" font-family="Times,serif" font-size="10.00" fill="#ffffff">7:Clip</text>
</g>
<!-- Name : Conv_12
Info : &#45;&gt;Name : Clip_15
Info :  -->
<g id="edge8" class="edge">
<title>Name : Conv_12
Info : &#45;&gt;Name : Clip_15
Info : </title>
<path fill="none" stroke="black" stroke-width="0.7" d="M94,-2113.76C94,-2112.98 94,-2112.19 94,-2111.38"/>
<polygon fill="black" stroke="black" stroke-width="0.7" points="94,-2106.11 96.25,-2111.11 94,-2108.61 94,-2111.11 94,-2111.11 94,-2111.11 94,-2108.61 91.75,-2111.11 94,-2106.11 94,-2106.11"/>
</g>
<!-- Name : Conv_16
Info :  -->
<g id="node9" class="node">
<title>Name : Conv_16
Info : </title>
<path fill="#375588" stroke="#000000" d="M114.67,-2079C114.67,-2079 73.33,-2079 73.33,-2079 70.17,-2079 67,-2075.83 67,-2072.67 67,-2072.67 67,-2066.33 67,-2066.33 67,-2063.17 70.17,-2060 73.33,-2060 73.33,-2060 114.67,-2060 114.67,-2060 117.83,-2060 121,-2063.17 121,-2066.33 121,-2066.33 121,-2072.67 121,-2072.67 121,-2075.83 117.83,-2079 114.67,-2079"/>
<text text-anchor="middle" x="94" y="-2067" font-family="Times,serif" font-size="10.00" fill="#ffffff">8:Conv</text>
</g>
<!-- Name : Clip_15
Info : &#45;&gt;Name : Conv_16
Info :  -->
<g id="edge9" class="edge">
<title>Name : Clip_15
Info : &#45;&gt;Name : Conv_16
Info : </title>
<path fill="none" stroke="black" stroke-width="0.7" d="M94,-2086.76C94,-2085.98 94,-2085.19 94,-2084.38"/>
<polygon fill="black" stroke="black" stroke-width="0.7" points="94,-2079.11 96.25,-2084.11 94,-2081.61 94,-2084.11 94,-2084.11 94,-2084.11 94,-2081.61 91.75,-2084.11 94,-2079.11 94,-2079.11"/>
</g>
<!-- Name : Clip_19
Info :  -->
<g id="node10" class="node">
<title>Name : Clip_19
Info : </title>
<path fill="#375588" stroke="#000000" d="M114.67,-2052C114.67,-2052 73.33,-2052 73.33,-2052 70.17,-2052 67,-2048.83 67,-2045.67 67,-2045.67 67,-2039.33 67,-2039.33 67,-2036.17 70.17,-2033 73.33,-2033 73.33,-2033 114.67,-2033 114.67,-2033 117.83,-2033 121,-2036.17 121,-2039.33 121,-2039.33 121,-2045.67 121,-2045.67 121,-2048.83 117.83,-2052 114.67,-2052"/>
<text text-anchor="middle" x="94" y="-2040" font-family="Times,serif" font-size="10.00" fill="#ffffff">9:Clip</text>
</g>
<!-- Name : Conv_16
Info : &#45;&gt;Name : Clip_19
Info :  -->
<g id="edge10" class="edge">
<title>Name : Conv_16
Info : &#45;&gt;Name : Clip_19
Info : </title>
<path fill="none" stroke="black" stroke-width="0.7" d="M94,-2059.76C94,-2058.98 94,-2058.19 94,-2057.38"/>
<polygon fill="black" stroke="black" stroke-width="0.7" points="94,-2052.11 96.25,-2057.11 94,-2054.61 94,-2057.11 94,-2057.11 94,-2057.11 94,-2054.61 91.75,-2057.11 94,-2052.11 94,-2052.11"/>
</g>
<!-- Name : Conv_20
Info :  -->
<g id="node11" class="node">
<title>Name : Conv_20
Info : </title>
<path fill="#375588" stroke="#000000" d="M115.67,-2025C115.67,-2025 70.33,-2025 70.33,-2025 67.17,-2025 64,-2021.83 64,-2018.67 64,-2018.67 64,-2012.33 64,-2012.33 64,-2009.17 67.17,-2006 70.33,-2006 70.33,-2006 115.67,-2006 115.67,-2006 118.83,-2006 122,-2009.17 122,-2012.33 122,-2012.33 122,-2018.67 122,-2018.67 122,-2021.83 118.83,-2025 115.67,-2025"/>
<text text-anchor="middle" x="93" y="-2013" font-family="Times,serif" font-size="10.00" fill="#ffffff">10:Conv</text>
</g>
<!-- Name : Clip_19
Info : &#45;&gt;Name : Conv_20
Info :  -->
<g id="edge11" class="edge">
<title>Name : Clip_19
Info : &#45;&gt;Name : Conv_20
Info : </title>
<path fill="none" stroke="black" stroke-width="0.7" d="M93.65,-2032.76C93.62,-2031.98 93.59,-2031.19 93.56,-2030.38"/>
<polygon fill="black" stroke="black" stroke-width="0.7" points="93.34,-2025.11 95.79,-2030.02 93.44,-2027.61 93.54,-2030.11 93.54,-2030.11 93.54,-2030.11 93.44,-2027.61 91.3,-2030.2 93.34,-2025.11 93.34,-2025.11"/>
</g>
<!-- Name : Clip_23
Info :  -->
<g id="node12" class="node">
<title>Name : Clip_23
Info : </title>
<path fill="#375588" stroke="#000000" d="M113.67,-1998C113.67,-1998 72.33,-1998 72.33,-1998 69.17,-1998 66,-1994.83 66,-1991.67 66,-1991.67 66,-1985.33 66,-1985.33 66,-1982.17 69.17,-1979 72.33,-1979 72.33,-1979 113.67,-1979 113.67,-1979 116.83,-1979 120,-1982.17 120,-1985.33 120,-1985.33 120,-1991.67 120,-1991.67 120,-1994.83 116.83,-1998 113.67,-1998"/>
<text text-anchor="middle" x="93" y="-1986" font-family="Times,serif" font-size="10.00" fill="#ffffff">11:Clip</text>
</g>
<!-- Name : Conv_20
Info : &#45;&gt;Name : Clip_23
Info :  -->
<g id="edge12" class="edge">
<title>Name : Conv_20
Info : &#45;&gt;Name : Clip_23
Info : </title>
<path fill="none" stroke="black" stroke-width="0.7" d="M93,-2005.76C93,-2004.98 93,-2004.19 93,-2003.38"/>
<polygon fill="black" stroke="black" stroke-width="0.7" points="93,-1998.11 95.25,-2003.11 93,-2000.61 93,-2003.11 93,-2003.11 93,-2003.11 93,-2000.61 90.75,-2003.11 93,-1998.11 93,-1998.11"/>
</g>
<!-- Name : Conv_24
Info :  -->
<g id="node13" class="node">
<title>Name : Conv_24
Info : </title>
<path fill="#375588" stroke="#000000" d="M115.67,-1971C115.67,-1971 70.33,-1971 70.33,-1971 67.17,-1971 64,-1967.83 64,-1964.67 64,-1964.67 64,-1958.33 64,-1958.33 64,-1955.17 67.17,-1952 70.33,-1952 70.33,-1952 115.67,-1952 115.67,-1952 118.83,-1952 122,-1955.17 122,-1958.33 122,-1958.33 122,-1964.67 122,-1964.67 122,-1967.83 118.83,-1971 115.67,-1971"/>
<text text-anchor="middle" x="93" y="-1959" font-family="Times,serif" font-size="10.00" fill="#ffffff">12:Conv</text>
</g>
<!-- Name : Clip_23
Info : &#45;&gt;Name : Conv_24
Info :  -->
<g id="edge13" class="edge">
<title>Name : Clip_23
Info : &#45;&gt;Name : Conv_24
Info : </title>
<path fill="none" stroke="black" stroke-width="0.7" d="M93,-1978.76C93,-1977.98 93,-1977.19 93,-1976.38"/>
<polygon fill="black" stroke="black" stroke-width="0.7" points="93,-1971.11 95.25,-1976.11 93,-1973.61 93,-1976.11 93,-1976.11 93,-1976.11 93,-1973.61 90.75,-1976.11 93,-1971.11 93,-1971.11"/>
</g>
<!-- Name : Clip_27
Info :  -->
<g id="node14" class="node">
<title>Name : Clip_27
Info : </title>
<path fill="#375588" stroke="#000000" d="M113.67,-1944C113.67,-1944 72.33,-1944 72.33,-1944 69.17,-1944 66,-1940.83 66,-1937.67 66,-1937.67 66,-1931.33 66,-1931.33 66,-1928.17 69.17,-1925 72.33,-1925 72.33,-1925 113.67,-1925 113.67,-1925 116.83,-1925 120,-1928.17 120,-1931.33 120,-1931.33 120,-1937.67 120,-1937.67 120,-1940.83 116.83,-1944 113.67,-1944"/>
<text text-anchor="middle" x="93" y="-1932" font-family="Times,serif" font-size="10.00" fill="#ffffff">13:Clip</text>
</g>
<!-- Name : Conv_24
Info : &#45;&gt;Name : Clip_27
Info :  -->
<g id="edge14" class="edge">
<title>Name : Conv_24
Info : &#45;&gt;Name : Clip_27
Info : </title>
<path fill="none" stroke="black" stroke-width="0.7" d="M93,-1951.76C93,-1950.98 93,-1950.19 93,-1949.38"/>
<polygon fill="black" stroke="black" stroke-width="0.7" points="93,-1944.11 95.25,-1949.11 93,-1946.61 93,-1949.11 93,-1949.11 93,-1949.11 93,-1946.61 90.75,-1949.11 93,-1944.11 93,-1944.11"/>
</g>
<!-- Name : Conv_28
Info :  -->
<g id="node15" class="node">
<title>Name : Conv_28
Info : </title>
<path fill="#375588" stroke="#000000" d="M95.67,-1917C95.67,-1917 50.33,-1917 50.33,-1917 47.17,-1917 44,-1913.83 44,-1910.67 44,-1910.67 44,-1904.33 44,-1904.33 44,-1901.17 47.17,-1898 50.33,-1898 50.33,-1898 95.67,-1898 95.67,-1898 98.83,-1898 102,-1901.17 102,-1904.33 102,-1904.33 102,-1910.67 102,-1910.67 102,-1913.83 98.83,-1917 95.67,-1917"/>
<text text-anchor="middle" x="73" y="-1905" font-family="Times,serif" font-size="10.00" fill="#ffffff">14:Conv</text>
</g>
<!-- Name : Clip_27
Info : &#45;&gt;Name : Conv_28
Info :  -->
<g id="edge15" class="edge">
<title>Name : Clip_27
Info : &#45;&gt;Name : Conv_28
Info : </title>
<path fill="none" stroke="black" stroke-width="0.7" d="M86,-1924.76C85.14,-1923.67 84.24,-1922.55 83.33,-1921.42"/>
<polygon fill="black" stroke="black" stroke-width="0.7" points="79.89,-1917.11 84.77,-1919.61 81.45,-1919.06 83.01,-1921.02 83.01,-1921.02 83.01,-1921.02 81.45,-1919.06 81.26,-1922.42 79.89,-1917.11 79.89,-1917.11"/>
</g>
<!-- Name : Add_127
Info :  -->
<g id="node71" class="node">
<title>Name : Add_127
Info : </title>
<path fill="#375588" stroke="#000000" d="M109.67,-405C109.67,-405 68.33,-405 68.33,-405 65.17,-405 62,-401.83 62,-398.67 62,-398.67 62,-392.33 62,-392.33 62,-389.17 65.17,-386 68.33,-386 68.33,-386 109.67,-386 109.67,-386 112.83,-386 116,-389.17 116,-392.33 116,-392.33 116,-398.67 116,-398.67 116,-401.83 112.83,-405 109.67,-405"/>
<text text-anchor="middle" x="89" y="-393" font-family="Times,serif" font-size="10.00" fill="#ffffff">70:Add</text>
</g>
<!-- Name : Clip_27
Info : &#45;&gt;Name : Add_127
Info :  -->
<g id="edge16" class="edge">
<title>Name : Clip_27
Info : &#45;&gt;Name : Add_127
Info : </title>
<path fill="none" stroke="black" stroke-width="0.7" d="M104.3,-1924.92C106.8,-1922.58 109.22,-1919.89 111,-1917 119.59,-1903.04 121,-1897.89 121,-1881.5 121,-1881.5 121,-1881.5 121,-448.5 121,-432.11 120.27,-426.52 111,-413 109.91,-411.41 108.62,-409.91 107.21,-408.51"/>
<polygon fill="black" stroke="black" stroke-width="0.7" points="103.29,-405.06 108.53,-406.68 105.17,-406.71 107.04,-408.37 107.04,-408.37 107.04,-408.37 105.17,-406.71 105.56,-410.06 103.29,-405.06 103.29,-405.06"/>
</g>
<!-- Name : Clip_31
Info :  -->
<g id="node16" class="node">
<title>Name : Clip_31
Info : </title>
<path fill="#375588" stroke="#000000" d="M93.67,-1890C93.67,-1890 52.33,-1890 52.33,-1890 49.17,-1890 46,-1886.83 46,-1883.67 46,-1883.67 46,-1877.33 46,-1877.33 46,-1874.17 49.17,-1871 52.33,-1871 52.33,-1871 93.67,-1871 93.67,-1871 96.83,-1871 100,-1874.17 100,-1877.33 100,-1877.33 100,-1883.67 100,-1883.67 100,-1886.83 96.83,-1890 93.67,-1890"/>
<text text-anchor="middle" x="73" y="-1878" font-family="Times,serif" font-size="10.00" fill="#ffffff">15:Clip</text>
</g>
<!-- Name : Conv_28
Info : &#45;&gt;Name : Clip_31
Info :  -->
<g id="edge17" class="edge">
<title>Name : Conv_28
Info : &#45;&gt;Name : Clip_31
Info : </title>
<path fill="none" stroke="black" stroke-width="0.7" d="M73,-1897.76C73,-1896.98 73,-1896.19 73,-1895.38"/>
<polygon fill="black" stroke="black" stroke-width="0.7" points="73,-1890.11 75.25,-1895.11 73,-1892.61 73,-1895.11 73,-1895.11 73,-1895.11 73,-1892.61 70.75,-1895.11 73,-1890.11 73,-1890.11"/>
</g>
<!-- Name : Conv_32
Info :  -->
<g id="node17" class="node">
<title>Name : Conv_32
Info : </title>
<path fill="#375588" stroke="#000000" d="M95.67,-1863C95.67,-1863 50.33,-1863 50.33,-1863 47.17,-1863 44,-1859.83 44,-1856.67 44,-1856.67 44,-1850.33 44,-1850.33 44,-1847.17 47.17,-1844 50.33,-1844 50.33,-1844 95.67,-1844 95.67,-1844 98.83,-1844 102,-1847.17 102,-1850.33 102,-1850.33 102,-1856.67 102,-1856.67 102,-1859.83 98.83,-1863 95.67,-1863"/>
<text text-anchor="middle" x="73" y="-1851" font-family="Times,serif" font-size="10.00" fill="#ffffff">16:Conv</text>
</g>
<!-- Name : Clip_31
Info : &#45;&gt;Name : Conv_32
Info :  -->
<g id="edge18" class="edge">
<title>Name : Clip_31
Info : &#45;&gt;Name : Conv_32
Info : </title>
<path fill="none" stroke="black" stroke-width="0.7" d="M73,-1870.76C73,-1869.98 73,-1869.19 73,-1868.38"/>
<polygon fill="black" stroke="black" stroke-width="0.7" points="73,-1863.11 75.25,-1868.11 73,-1865.61 73,-1868.11 73,-1868.11 73,-1868.11 73,-1865.61 70.75,-1868.11 73,-1863.11 73,-1863.11"/>
</g>
<!-- Name : Clip_35
Info :  -->
<g id="node18" class="node">
<title>Name : Clip_35
Info : </title>
<path fill="#375588" stroke="#000000" d="M93.67,-1836C93.67,-1836 52.33,-1836 52.33,-1836 49.17,-1836 46,-1832.83 46,-1829.67 46,-1829.67 46,-1823.33 46,-1823.33 46,-1820.17 49.17,-1817 52.33,-1817 52.33,-1817 93.67,-1817 93.67,-1817 96.83,-1817 100,-1820.17 100,-1823.33 100,-1823.33 100,-1829.67 100,-1829.67 100,-1832.83 96.83,-1836 93.67,-1836"/>
<text text-anchor="middle" x="73" y="-1824" font-family="Times,serif" font-size="10.00" fill="#ffffff">17:Clip</text>
</g>
<!-- Name : Conv_32
Info : &#45;&gt;Name : Clip_35
Info :  -->
<g id="edge19" class="edge">
<title>Name : Conv_32
Info : &#45;&gt;Name : Clip_35
Info : </title>
<path fill="none" stroke="black" stroke-width="0.7" d="M73,-1843.76C73,-1842.98 73,-1842.19 73,-1841.38"/>
<polygon fill="black" stroke="black" stroke-width="0.7" points="73,-1836.11 75.25,-1841.11 73,-1838.61 73,-1841.11 73,-1841.11 73,-1841.11 73,-1838.61 70.75,-1841.11 73,-1836.11 73,-1836.11"/>
</g>
<!-- Name : Conv_36
Info :  -->
<g id="node19" class="node">
<title>Name : Conv_36
Info : </title>
<path fill="#375588" stroke="#000000" d="M95.67,-1809C95.67,-1809 50.33,-1809 50.33,-1809 47.17,-1809 44,-1805.83 44,-1802.67 44,-1802.67 44,-1796.33 44,-1796.33 44,-1793.17 47.17,-1790 50.33,-1790 50.33,-1790 95.67,-1790 95.67,-1790 98.83,-1790 102,-1793.17 102,-1796.33 102,-1796.33 102,-1802.67 102,-1802.67 102,-1805.83 98.83,-1809 95.67,-1809"/>
<text text-anchor="middle" x="73" y="-1797" font-family="Times,serif" font-size="10.00" fill="#ffffff">18:Conv</text>
</g>
<!-- Name : Clip_35
Info : &#45;&gt;Name : Conv_36
Info :  -->
<g id="edge20" class="edge">
<title>Name : Clip_35
Info : &#45;&gt;Name : Conv_36
Info : </title>
<path fill="none" stroke="black" stroke-width="0.7" d="M73,-1816.76C73,-1815.98 73,-1815.19 73,-1814.38"/>
<polygon fill="black" stroke="black" stroke-width="0.7" points="73,-1809.11 75.25,-1814.11 73,-1811.61 73,-1814.11 73,-1814.11 73,-1814.11 73,-1811.61 70.75,-1814.11 73,-1809.11 73,-1809.11"/>
</g>
<!-- Name : Clip_39
Info :  -->
<g id="node20" class="node">
<title>Name : Clip_39
Info : </title>
<path fill="#375588" stroke="#000000" d="M93.67,-1782C93.67,-1782 52.33,-1782 52.33,-1782 49.17,-1782 46,-1778.83 46,-1775.67 46,-1775.67 46,-1769.33 46,-1769.33 46,-1766.17 49.17,-1763 52.33,-1763 52.33,-1763 93.67,-1763 93.67,-1763 96.83,-1763 100,-1766.17 100,-1769.33 100,-1769.33 100,-1775.67 100,-1775.67 100,-1778.83 96.83,-1782 93.67,-1782"/>
<text text-anchor="middle" x="73" y="-1770" font-family="Times,serif" font-size="10.00" fill="#ffffff">19:Clip</text>
</g>
<!-- Name : Conv_36
Info : &#45;&gt;Name : Clip_39
Info :  -->
<g id="edge21" class="edge">
<title>Name : Conv_36
Info : &#45;&gt;Name : Clip_39
Info : </title>
<path fill="none" stroke="black" stroke-width="0.7" d="M73,-1789.76C73,-1788.98 73,-1788.19 73,-1787.38"/>
<polygon fill="black" stroke="black" stroke-width="0.7" points="73,-1782.11 75.25,-1787.11 73,-1784.61 73,-1787.11 73,-1787.11 73,-1787.11 73,-1784.61 70.75,-1787.11 73,-1782.11 73,-1782.11"/>
</g>
<!-- Name : Conv_40
Info :  -->
<g id="node21" class="node">
<title>Name : Conv_40
Info : </title>
<path fill="#375588" stroke="#000000" d="M95.67,-1755C95.67,-1755 50.33,-1755 50.33,-1755 47.17,-1755 44,-1751.83 44,-1748.67 44,-1748.67 44,-1742.33 44,-1742.33 44,-1739.17 47.17,-1736 50.33,-1736 50.33,-1736 95.67,-1736 95.67,-1736 98.83,-1736 102,-1739.17 102,-1742.33 102,-1742.33 102,-1748.67 102,-1748.67 102,-1751.83 98.83,-1755 95.67,-1755"/>
<text text-anchor="middle" x="73" y="-1743" font-family="Times,serif" font-size="10.00" fill="#ffffff">20:Conv</text>
</g>
<!-- Name : Clip_39
Info : &#45;&gt;Name : Conv_40
Info :  -->
<g id="edge22" class="edge">
<title>Name : Clip_39
Info : &#45;&gt;Name : Conv_40
Info : </title>
<path fill="none" stroke="black" stroke-width="0.7" d="M73,-1762.76C73,-1761.98 73,-1761.19 73,-1760.38"/>
<polygon fill="black" stroke="black" stroke-width="0.7" points="73,-1755.11 75.25,-1760.11 73,-1757.61 73,-1760.11 73,-1760.11 73,-1760.11 73,-1757.61 70.75,-1760.11 73,-1755.11 73,-1755.11"/>
</g>
<!-- Name : Clip_43
Info :  -->
<g id="node22" class="node">
<title>Name : Clip_43
Info : </title>
<path fill="#375588" stroke="#000000" d="M93.67,-1728C93.67,-1728 52.33,-1728 52.33,-1728 49.17,-1728 46,-1724.83 46,-1721.67 46,-1721.67 46,-1715.33 46,-1715.33 46,-1712.17 49.17,-1709 52.33,-1709 52.33,-1709 93.67,-1709 93.67,-1709 96.83,-1709 100,-1712.17 100,-1715.33 100,-1715.33 100,-1721.67 100,-1721.67 100,-1724.83 96.83,-1728 93.67,-1728"/>
<text text-anchor="middle" x="73" y="-1716" font-family="Times,serif" font-size="10.00" fill="#ffffff">21:Clip</text>
</g>
<!-- Name : Conv_40
Info : &#45;&gt;Name : Clip_43
Info :  -->
<g id="edge23" class="edge">
<title>Name : Conv_40
Info : &#45;&gt;Name : Clip_43
Info : </title>
<path fill="none" stroke="black" stroke-width="0.7" d="M73,-1735.76C73,-1734.98 73,-1734.19 73,-1733.38"/>
<polygon fill="black" stroke="black" stroke-width="0.7" points="73,-1728.11 75.25,-1733.11 73,-1730.61 73,-1733.11 73,-1733.11 73,-1733.11 73,-1730.61 70.75,-1733.11 73,-1728.11 73,-1728.11"/>
</g>
<!-- Name : Conv_44
Info :  -->
<g id="node23" class="node">
<title>Name : Conv_44
Info : </title>
<path fill="#375588" stroke="#000000" d="M75.67,-1701C75.67,-1701 30.33,-1701 30.33,-1701 27.17,-1701 24,-1697.83 24,-1694.67 24,-1694.67 24,-1688.33 24,-1688.33 24,-1685.17 27.17,-1682 30.33,-1682 30.33,-1682 75.67,-1682 75.67,-1682 78.83,-1682 82,-1685.17 82,-1688.33 82,-1688.33 82,-1694.67 82,-1694.67 82,-1697.83 78.83,-1701 75.67,-1701"/>
<text text-anchor="middle" x="53" y="-1689" font-family="Times,serif" font-size="10.00" fill="#ffffff">22:Conv</text>
</g>
<!-- Name : Clip_43
Info : &#45;&gt;Name : Conv_44
Info :  -->
<g id="edge24" class="edge">
<title>Name : Clip_43
Info : &#45;&gt;Name : Conv_44
Info : </title>
<path fill="none" stroke="black" stroke-width="0.7" d="M66,-1708.76C65.14,-1707.67 64.24,-1706.55 63.33,-1705.42"/>
<polygon fill="black" stroke="black" stroke-width="0.7" points="59.89,-1701.11 64.77,-1703.61 61.45,-1703.06 63.01,-1705.02 63.01,-1705.02 63.01,-1705.02 61.45,-1703.06 61.26,-1706.42 59.89,-1701.11 59.89,-1701.11"/>
</g>
<!-- Name : Add_120
Info :  -->
<g id="node65" class="node">
<title>Name : Add_120
Info : </title>
<path fill="#375588" stroke="#000000" d="M89.67,-567C89.67,-567 48.33,-567 48.33,-567 45.17,-567 42,-563.83 42,-560.67 42,-560.67 42,-554.33 42,-554.33 42,-551.17 45.17,-548 48.33,-548 48.33,-548 89.67,-548 89.67,-548 92.83,-548 96,-551.17 96,-554.33 96,-554.33 96,-560.67 96,-560.67 96,-563.83 92.83,-567 89.67,-567"/>
<text text-anchor="middle" x="69" y="-555" font-family="Times,serif" font-size="10.00" fill="#ffffff">64:Add</text>
</g>
<!-- Name : Clip_43
Info : &#45;&gt;Name : Add_120
Info :  -->
<g id="edge25" class="edge">
<title>Name : Clip_43
Info : &#45;&gt;Name : Add_120
Info : </title>
<path fill="none" stroke="black" stroke-width="0.7" d="M84.3,-1708.92C86.8,-1706.58 89.22,-1703.89 91,-1701 99.59,-1687.04 101,-1681.89 101,-1665.5 101,-1665.5 101,-1665.5 101,-610.5 101,-594.11 100.27,-588.52 91,-575 89.91,-573.41 88.62,-571.91 87.21,-570.51"/>
<polygon fill="black" stroke="black" stroke-width="0.7" points="83.29,-567.06 88.53,-568.68 85.17,-568.71 87.04,-570.37 87.04,-570.37 87.04,-570.37 85.17,-568.71 85.56,-572.06 83.29,-567.06 83.29,-567.06"/>
</g>
<!-- Name : Clip_47
Info :  -->
<g id="node24" class="node">
<title>Name : Clip_47
Info : </title>
<path fill="#375588" stroke="#000000" d="M73.67,-1674C73.67,-1674 32.33,-1674 32.33,-1674 29.17,-1674 26,-1670.83 26,-1667.67 26,-1667.67 26,-1661.33 26,-1661.33 26,-1658.17 29.17,-1655 32.33,-1655 32.33,-1655 73.67,-1655 73.67,-1655 76.83,-1655 80,-1658.17 80,-1661.33 80,-1661.33 80,-1667.67 80,-1667.67 80,-1670.83 76.83,-1674 73.67,-1674"/>
<text text-anchor="middle" x="53" y="-1662" font-family="Times,serif" font-size="10.00" fill="#ffffff">23:Clip</text>
</g>
<!-- Name : Conv_44
Info : &#45;&gt;Name : Clip_47
Info :  -->
<g id="edge26" class="edge">
<title>Name : Conv_44
Info : &#45;&gt;Name : Clip_47
Info : </title>
<path fill="none" stroke="black" stroke-width="0.7" d="M53,-1681.76C53,-1680.98 53,-1680.19 53,-1679.38"/>
<polygon fill="black" stroke="black" stroke-width="0.7" points="53,-1674.11 55.25,-1679.11 53,-1676.61 53,-1679.11 53,-1679.11 53,-1679.11 53,-1676.61 50.75,-1679.11 53,-1674.11 53,-1674.11"/>
</g>
<!-- Name : Conv_48
Info :  -->
<g id="node25" class="node">
<title>Name : Conv_48
Info : </title>
<path fill="#375588" stroke="#000000" d="M75.67,-1647C75.67,-1647 30.33,-1647 30.33,-1647 27.17,-1647 24,-1643.83 24,-1640.67 24,-1640.67 24,-1634.33 24,-1634.33 24,-1631.17 27.17,-1628 30.33,-1628 30.33,-1628 75.67,-1628 75.67,-1628 78.83,-1628 82,-1631.17 82,-1634.33 82,-1634.33 82,-1640.67 82,-1640.67 82,-1643.83 78.83,-1647 75.67,-1647"/>
<text text-anchor="middle" x="53" y="-1635" font-family="Times,serif" font-size="10.00" fill="#ffffff">24:Conv</text>
</g>
<!-- Name : Clip_47
Info : &#45;&gt;Name : Conv_48
Info :  -->
<g id="edge27" class="edge">
<title>Name : Clip_47
Info : &#45;&gt;Name : Conv_48
Info : </title>
<path fill="none" stroke="black" stroke-width="0.7" d="M53,-1654.76C53,-1653.98 53,-1653.19 53,-1652.38"/>
<polygon fill="black" stroke="black" stroke-width="0.7" points="53,-1647.11 55.25,-1652.11 53,-1649.61 53,-1652.11 53,-1652.11 53,-1652.11 53,-1649.61 50.75,-1652.11 53,-1647.11 53,-1647.11"/>
</g>
<!-- Name : Clip_51
Info :  -->
<g id="node26" class="node">
<title>Name : Clip_51
Info : </title>
<path fill="#375588" stroke="#000000" d="M73.67,-1620C73.67,-1620 32.33,-1620 32.33,-1620 29.17,-1620 26,-1616.83 26,-1613.67 26,-1613.67 26,-1607.33 26,-1607.33 26,-1604.17 29.17,-1601 32.33,-1601 32.33,-1601 73.67,-1601 73.67,-1601 76.83,-1601 80,-1604.17 80,-1607.33 80,-1607.33 80,-1613.67 80,-1613.67 80,-1616.83 76.83,-1620 73.67,-1620"/>
<text text-anchor="middle" x="53" y="-1608" font-family="Times,serif" font-size="10.00" fill="#ffffff">25:Clip</text>
</g>
<!-- Name : Conv_48
Info : &#45;&gt;Name : Clip_51
Info :  -->
<g id="edge28" class="edge">
<title>Name : Conv_48
Info : &#45;&gt;Name : Clip_51
Info : </title>
<path fill="none" stroke="black" stroke-width="0.7" d="M53,-1627.76C53,-1626.98 53,-1626.19 53,-1625.38"/>
<polygon fill="black" stroke="black" stroke-width="0.7" points="53,-1620.11 55.25,-1625.11 53,-1622.61 53,-1625.11 53,-1625.11 53,-1625.11 53,-1622.61 50.75,-1625.11 53,-1620.11 53,-1620.11"/>
</g>
<!-- Name : Conv_52
Info :  -->
<g id="node27" class="node">
<title>Name : Conv_52
Info : </title>
<path fill="#375588" stroke="#000000" d="M75.67,-1593C75.67,-1593 30.33,-1593 30.33,-1593 27.17,-1593 24,-1589.83 24,-1586.67 24,-1586.67 24,-1580.33 24,-1580.33 24,-1577.17 27.17,-1574 30.33,-1574 30.33,-1574 75.67,-1574 75.67,-1574 78.83,-1574 82,-1577.17 82,-1580.33 82,-1580.33 82,-1586.67 82,-1586.67 82,-1589.83 78.83,-1593 75.67,-1593"/>
<text text-anchor="middle" x="53" y="-1581" font-family="Times,serif" font-size="10.00" fill="#ffffff">26:Conv</text>
</g>
<!-- Name : Clip_51
Info : &#45;&gt;Name : Conv_52
Info :  -->
<g id="edge29" class="edge">
<title>Name : Clip_51
Info : &#45;&gt;Name : Conv_52
Info : </title>
<path fill="none" stroke="black" stroke-width="0.7" d="M53,-1600.76C53,-1599.98 53,-1599.19 53,-1598.38"/>
<polygon fill="black" stroke="black" stroke-width="0.7" points="53,-1593.11 55.25,-1598.11 53,-1595.61 53,-1598.11 53,-1598.11 53,-1598.11 53,-1595.61 50.75,-1598.11 53,-1593.11 53,-1593.11"/>
</g>
<!-- Name : Clip_55
Info :  -->
<g id="node28" class="node">
<title>Name : Clip_55
Info : </title>
<path fill="#375588" stroke="#000000" d="M73.67,-1566C73.67,-1566 32.33,-1566 32.33,-1566 29.17,-1566 26,-1562.83 26,-1559.67 26,-1559.67 26,-1553.33 26,-1553.33 26,-1550.17 29.17,-1547 32.33,-1547 32.33,-1547 73.67,-1547 73.67,-1547 76.83,-1547 80,-1550.17 80,-1553.33 80,-1553.33 80,-1559.67 80,-1559.67 80,-1562.83 76.83,-1566 73.67,-1566"/>
<text text-anchor="middle" x="53" y="-1554" font-family="Times,serif" font-size="10.00" fill="#ffffff">27:Clip</text>
</g>
<!-- Name : Conv_52
Info : &#45;&gt;Name : Clip_55
Info :  -->
<g id="edge30" class="edge">
<title>Name : Conv_52
Info : &#45;&gt;Name : Clip_55
Info : </title>
<path fill="none" stroke="black" stroke-width="0.7" d="M53,-1573.76C53,-1572.98 53,-1572.19 53,-1571.38"/>
<polygon fill="black" stroke="black" stroke-width="0.7" points="53,-1566.11 55.25,-1571.11 53,-1568.61 53,-1571.11 53,-1571.11 53,-1571.11 53,-1568.61 50.75,-1571.11 53,-1566.11 53,-1566.11"/>
</g>
<!-- Name : Conv_56
Info :  -->
<g id="node29" class="node">
<title>Name : Conv_56
Info : </title>
<path fill="#375588" stroke="#000000" d="M75.67,-1539C75.67,-1539 30.33,-1539 30.33,-1539 27.17,-1539 24,-1535.83 24,-1532.67 24,-1532.67 24,-1526.33 24,-1526.33 24,-1523.17 27.17,-1520 30.33,-1520 30.33,-1520 75.67,-1520 75.67,-1520 78.83,-1520 82,-1523.17 82,-1526.33 82,-1526.33 82,-1532.67 82,-1532.67 82,-1535.83 78.83,-1539 75.67,-1539"/>
<text text-anchor="middle" x="53" y="-1527" font-family="Times,serif" font-size="10.00" fill="#ffffff">28:Conv</text>
</g>
<!-- Name : Clip_55
Info : &#45;&gt;Name : Conv_56
Info :  -->
<g id="edge31" class="edge">
<title>Name : Clip_55
Info : &#45;&gt;Name : Conv_56
Info : </title>
<path fill="none" stroke="black" stroke-width="0.7" d="M53,-1546.76C53,-1545.98 53,-1545.19 53,-1544.38"/>
<polygon fill="black" stroke="black" stroke-width="0.7" points="53,-1539.11 55.25,-1544.11 53,-1541.61 53,-1544.11 53,-1544.11 53,-1544.11 53,-1541.61 50.75,-1544.11 53,-1539.11 53,-1539.11"/>
</g>
<!-- Name : Clip_59
Info :  -->
<g id="node30" class="node">
<title>Name : Clip_59
Info : </title>
<path fill="#375588" stroke="#000000" d="M73.67,-1512C73.67,-1512 32.33,-1512 32.33,-1512 29.17,-1512 26,-1508.83 26,-1505.67 26,-1505.67 26,-1499.33 26,-1499.33 26,-1496.17 29.17,-1493 32.33,-1493 32.33,-1493 73.67,-1493 73.67,-1493 76.83,-1493 80,-1496.17 80,-1499.33 80,-1499.33 80,-1505.67 80,-1505.67 80,-1508.83 76.83,-1512 73.67,-1512"/>
<text text-anchor="middle" x="53" y="-1500" font-family="Times,serif" font-size="10.00" fill="#ffffff">29:Clip</text>
</g>
<!-- Name : Conv_56
Info : &#45;&gt;Name : Clip_59
Info :  -->
<g id="edge32" class="edge">
<title>Name : Conv_56
Info : &#45;&gt;Name : Clip_59
Info : </title>
<path fill="none" stroke="black" stroke-width="0.7" d="M53,-1519.76C53,-1518.98 53,-1518.19 53,-1517.38"/>
<polygon fill="black" stroke="black" stroke-width="0.7" points="53,-1512.11 55.25,-1517.11 53,-1514.61 53,-1517.11 53,-1517.11 53,-1517.11 53,-1514.61 50.75,-1517.11 53,-1512.11 53,-1512.11"/>
</g>
<!-- Name : Conv_60
Info :  -->
<g id="node31" class="node">
<title>Name : Conv_60
Info : </title>
<path fill="#375588" stroke="#000000" d="M75.67,-1485C75.67,-1485 30.33,-1485 30.33,-1485 27.17,-1485 24,-1481.83 24,-1478.67 24,-1478.67 24,-1472.33 24,-1472.33 24,-1469.17 27.17,-1466 30.33,-1466 30.33,-1466 75.67,-1466 75.67,-1466 78.83,-1466 82,-1469.17 82,-1472.33 82,-1472.33 82,-1478.67 82,-1478.67 82,-1481.83 78.83,-1485 75.67,-1485"/>
<text text-anchor="middle" x="53" y="-1473" font-family="Times,serif" font-size="10.00" fill="#ffffff">30:Conv</text>
</g>
<!-- Name : Clip_59
Info : &#45;&gt;Name : Conv_60
Info :  -->
<g id="edge33" class="edge">
<title>Name : Clip_59
Info : &#45;&gt;Name : Conv_60
Info : </title>
<path fill="none" stroke="black" stroke-width="0.7" d="M53,-1492.76C53,-1491.98 53,-1491.19 53,-1490.38"/>
<polygon fill="black" stroke="black" stroke-width="0.7" points="53,-1485.11 55.25,-1490.11 53,-1487.61 53,-1490.11 53,-1490.11 53,-1490.11 53,-1487.61 50.75,-1490.11 53,-1485.11 53,-1485.11"/>
</g>
<!-- Name : Clip_63
Info :  -->
<g id="node32" class="node">
<title>Name : Clip_63
Info : </title>
<path fill="#375588" stroke="#000000" d="M73.67,-1458C73.67,-1458 32.33,-1458 32.33,-1458 29.17,-1458 26,-1454.83 26,-1451.67 26,-1451.67 26,-1445.33 26,-1445.33 26,-1442.17 29.17,-1439 32.33,-1439 32.33,-1439 73.67,-1439 73.67,-1439 76.83,-1439 80,-1442.17 80,-1445.33 80,-1445.33 80,-1451.67 80,-1451.67 80,-1454.83 76.83,-1458 73.67,-1458"/>
<text text-anchor="middle" x="53" y="-1446" font-family="Times,serif" font-size="10.00" fill="#ffffff">31:Clip</text>
</g>
<!-- Name : Conv_60
Info : &#45;&gt;Name : Clip_63
Info :  -->
<g id="edge34" class="edge">
<title>Name : Conv_60
Info : &#45;&gt;Name : Clip_63
Info : </title>
<path fill="none" stroke="black" stroke-width="0.7" d="M53,-1465.76C53,-1464.98 53,-1464.19 53,-1463.38"/>
<polygon fill="black" stroke="black" stroke-width="0.7" points="53,-1458.11 55.25,-1463.11 53,-1460.61 53,-1463.11 53,-1463.11 53,-1463.11 53,-1460.61 50.75,-1463.11 53,-1458.11 53,-1458.11"/>
</g>
<!-- Name : Conv_64
Info :  -->
<g id="node33" class="node">
<title>Name : Conv_64
Info : </title>
<path fill="#375588" stroke="#000000" d="M75.67,-1431C75.67,-1431 30.33,-1431 30.33,-1431 27.17,-1431 24,-1427.83 24,-1424.67 24,-1424.67 24,-1418.33 24,-1418.33 24,-1415.17 27.17,-1412 30.33,-1412 30.33,-1412 75.67,-1412 75.67,-1412 78.83,-1412 82,-1415.17 82,-1418.33 82,-1418.33 82,-1424.67 82,-1424.67 82,-1427.83 78.83,-1431 75.67,-1431"/>
<text text-anchor="middle" x="53" y="-1419" font-family="Times,serif" font-size="10.00" fill="#ffffff">32:Conv</text>
</g>
<!-- Name : Clip_63
Info : &#45;&gt;Name : Conv_64
Info :  -->
<g id="edge35" class="edge">
<title>Name : Clip_63
Info : &#45;&gt;Name : Conv_64
Info : </title>
<path fill="none" stroke="black" stroke-width="0.7" d="M53,-1438.76C53,-1437.98 53,-1437.19 53,-1436.38"/>
<polygon fill="black" stroke="black" stroke-width="0.7" points="53,-1431.11 55.25,-1436.11 53,-1433.61 53,-1436.11 53,-1436.11 53,-1436.11 53,-1433.61 50.75,-1436.11 53,-1431.11 53,-1431.11"/>
</g>
<!-- Name : Clip_67
Info :  -->
<g id="node34" class="node">
<title>Name : Clip_67
Info : </title>
<path fill="#375588" stroke="#000000" d="M73.67,-1404C73.67,-1404 32.33,-1404 32.33,-1404 29.17,-1404 26,-1400.83 26,-1397.67 26,-1397.67 26,-1391.33 26,-1391.33 26,-1388.17 29.17,-1385 32.33,-1385 32.33,-1385 73.67,-1385 73.67,-1385 76.83,-1385 80,-1388.17 80,-1391.33 80,-1391.33 80,-1397.67 80,-1397.67 80,-1400.83 76.83,-1404 73.67,-1404"/>
<text text-anchor="middle" x="53" y="-1392" font-family="Times,serif" font-size="10.00" fill="#ffffff">33:Clip</text>
</g>
<!-- Name : Conv_64
Info : &#45;&gt;Name : Clip_67
Info :  -->
<g id="edge36" class="edge">
<title>Name : Conv_64
Info : &#45;&gt;Name : Clip_67
Info : </title>
<path fill="none" stroke="black" stroke-width="0.7" d="M53,-1411.76C53,-1410.98 53,-1410.19 53,-1409.38"/>
<polygon fill="black" stroke="black" stroke-width="0.7" points="53,-1404.11 55.25,-1409.11 53,-1406.61 53,-1409.11 53,-1409.11 53,-1409.11 53,-1406.61 50.75,-1409.11 53,-1404.11 53,-1404.11"/>
</g>
<!-- Name : Conv_68
Info :  -->
<g id="node35" class="node">
<title>Name : Conv_68
Info : </title>
<path fill="#375588" stroke="#000000" d="M75.67,-1377C75.67,-1377 30.33,-1377 30.33,-1377 27.17,-1377 24,-1373.83 24,-1370.67 24,-1370.67 24,-1364.33 24,-1364.33 24,-1361.17 27.17,-1358 30.33,-1358 30.33,-1358 75.67,-1358 75.67,-1358 78.83,-1358 82,-1361.17 82,-1364.33 82,-1364.33 82,-1370.67 82,-1370.67 82,-1373.83 78.83,-1377 75.67,-1377"/>
<text text-anchor="middle" x="53" y="-1365" font-family="Times,serif" font-size="10.00" fill="#ffffff">34:Conv</text>
</g>
<!-- Name : Clip_67
Info : &#45;&gt;Name : Conv_68
Info :  -->
<g id="edge37" class="edge">
<title>Name : Clip_67
Info : &#45;&gt;Name : Conv_68
Info : </title>
<path fill="none" stroke="black" stroke-width="0.7" d="M53,-1384.76C53,-1383.98 53,-1383.19 53,-1382.38"/>
<polygon fill="black" stroke="black" stroke-width="0.7" points="53,-1377.11 55.25,-1382.11 53,-1379.61 53,-1382.11 53,-1382.11 53,-1382.11 53,-1379.61 50.75,-1382.11 53,-1377.11 53,-1377.11"/>
</g>
<!-- Name : Clip_71
Info :  -->
<g id="node36" class="node">
<title>Name : Clip_71
Info : </title>
<path fill="#375588" stroke="#000000" d="M73.67,-1350C73.67,-1350 32.33,-1350 32.33,-1350 29.17,-1350 26,-1346.83 26,-1343.67 26,-1343.67 26,-1337.33 26,-1337.33 26,-1334.17 29.17,-1331 32.33,-1331 32.33,-1331 73.67,-1331 73.67,-1331 76.83,-1331 80,-1334.17 80,-1337.33 80,-1337.33 80,-1343.67 80,-1343.67 80,-1346.83 76.83,-1350 73.67,-1350"/>
<text text-anchor="middle" x="53" y="-1338" font-family="Times,serif" font-size="10.00" fill="#ffffff">35:Clip</text>
</g>
<!-- Name : Conv_68
Info : &#45;&gt;Name : Clip_71
Info :  -->
<g id="edge38" class="edge">
<title>Name : Conv_68
Info : &#45;&gt;Name : Clip_71
Info : </title>
<path fill="none" stroke="black" stroke-width="0.7" d="M53,-1357.76C53,-1356.98 53,-1356.19 53,-1355.38"/>
<polygon fill="black" stroke="black" stroke-width="0.7" points="53,-1350.11 55.25,-1355.11 53,-1352.61 53,-1355.11 53,-1355.11 53,-1355.11 53,-1352.61 50.75,-1355.11 53,-1350.11 53,-1350.11"/>
</g>
<!-- Name : Conv_72
Info :  -->
<g id="node37" class="node">
<title>Name : Conv_72
Info : </title>
<path fill="#375588" stroke="#000000" d="M75.67,-1323C75.67,-1323 30.33,-1323 30.33,-1323 27.17,-1323 24,-1319.83 24,-1316.67 24,-1316.67 24,-1310.33 24,-1310.33 24,-1307.17 27.17,-1304 30.33,-1304 30.33,-1304 75.67,-1304 75.67,-1304 78.83,-1304 82,-1307.17 82,-1310.33 82,-1310.33 82,-1316.67 82,-1316.67 82,-1319.83 78.83,-1323 75.67,-1323"/>
<text text-anchor="middle" x="53" y="-1311" font-family="Times,serif" font-size="10.00" fill="#ffffff">36:Conv</text>
</g>
<!-- Name : Clip_71
Info : &#45;&gt;Name : Conv_72
Info :  -->
<g id="edge39" class="edge">
<title>Name : Clip_71
Info : &#45;&gt;Name : Conv_72
Info : </title>
<path fill="none" stroke="black" stroke-width="0.7" d="M53,-1330.76C53,-1329.98 53,-1329.19 53,-1328.38"/>
<polygon fill="black" stroke="black" stroke-width="0.7" points="53,-1323.11 55.25,-1328.11 53,-1325.61 53,-1328.11 53,-1328.11 53,-1328.11 53,-1325.61 50.75,-1328.11 53,-1323.11 53,-1323.11"/>
</g>
<!-- Name : Clip_75
Info :  -->
<g id="node38" class="node">
<title>Name : Clip_75
Info : </title>
<path fill="#375588" stroke="#000000" d="M73.67,-1296C73.67,-1296 32.33,-1296 32.33,-1296 29.17,-1296 26,-1292.83 26,-1289.67 26,-1289.67 26,-1283.33 26,-1283.33 26,-1280.17 29.17,-1277 32.33,-1277 32.33,-1277 73.67,-1277 73.67,-1277 76.83,-1277 80,-1280.17 80,-1283.33 80,-1283.33 80,-1289.67 80,-1289.67 80,-1292.83 76.83,-1296 73.67,-1296"/>
<text text-anchor="middle" x="53" y="-1284" font-family="Times,serif" font-size="10.00" fill="#ffffff">37:Clip</text>
</g>
<!-- Name : Conv_72
Info : &#45;&gt;Name : Clip_75
Info :  -->
<g id="edge40" class="edge">
<title>Name : Conv_72
Info : &#45;&gt;Name : Clip_75
Info : </title>
<path fill="none" stroke="black" stroke-width="0.7" d="M53,-1303.76C53,-1302.98 53,-1302.19 53,-1301.38"/>
<polygon fill="black" stroke="black" stroke-width="0.7" points="53,-1296.11 55.25,-1301.11 53,-1298.61 53,-1301.11 53,-1301.11 53,-1301.11 53,-1298.61 50.75,-1301.11 53,-1296.11 53,-1296.11"/>
</g>
<!-- Name : Conv_76
Info :  -->
<g id="node39" class="node">
<title>Name : Conv_76
Info : </title>
<path fill="#375588" stroke="#000000" d="M75.67,-1269C75.67,-1269 30.33,-1269 30.33,-1269 27.17,-1269 24,-1265.83 24,-1262.67 24,-1262.67 24,-1256.33 24,-1256.33 24,-1253.17 27.17,-1250 30.33,-1250 30.33,-1250 75.67,-1250 75.67,-1250 78.83,-1250 82,-1253.17 82,-1256.33 82,-1256.33 82,-1262.67 82,-1262.67 82,-1265.83 78.83,-1269 75.67,-1269"/>
<text text-anchor="middle" x="53" y="-1257" font-family="Times,serif" font-size="10.00" fill="#ffffff">38:Conv</text>
</g>
<!-- Name : Clip_75
Info : &#45;&gt;Name : Conv_76
Info :  -->
<g id="edge41" class="edge">
<title>Name : Clip_75
Info : &#45;&gt;Name : Conv_76
Info : </title>
<path fill="none" stroke="black" stroke-width="0.7" d="M53,-1276.76C53,-1275.98 53,-1275.19 53,-1274.38"/>
<polygon fill="black" stroke="black" stroke-width="0.7" points="53,-1269.11 55.25,-1274.11 53,-1271.61 53,-1274.11 53,-1274.11 53,-1274.11 53,-1271.61 50.75,-1274.11 53,-1269.11 53,-1269.11"/>
</g>
<!-- Name : Clip_79
Info :  -->
<g id="node40" class="node">
<title>Name : Clip_79
Info : </title>
<path fill="#375588" stroke="#000000" d="M73.67,-1242C73.67,-1242 32.33,-1242 32.33,-1242 29.17,-1242 26,-1238.83 26,-1235.67 26,-1235.67 26,-1229.33 26,-1229.33 26,-1226.17 29.17,-1223 32.33,-1223 32.33,-1223 73.67,-1223 73.67,-1223 76.83,-1223 80,-1226.17 80,-1229.33 80,-1229.33 80,-1235.67 80,-1235.67 80,-1238.83 76.83,-1242 73.67,-1242"/>
<text text-anchor="middle" x="53" y="-1230" font-family="Times,serif" font-size="10.00" fill="#ffffff">39:Clip</text>
</g>
<!-- Name : Conv_76
Info : &#45;&gt;Name : Clip_79
Info :  -->
<g id="edge42" class="edge">
<title>Name : Conv_76
Info : &#45;&gt;Name : Clip_79
Info : </title>
<path fill="none" stroke="black" stroke-width="0.7" d="M53,-1249.76C53,-1248.98 53,-1248.19 53,-1247.38"/>
<polygon fill="black" stroke="black" stroke-width="0.7" points="53,-1242.11 55.25,-1247.11 53,-1244.61 53,-1247.11 53,-1247.11 53,-1247.11 53,-1244.61 50.75,-1247.11 53,-1242.11 53,-1242.11"/>
</g>
<!-- Name : Conv_80
Info :  -->
<g id="node41" class="node">
<title>Name : Conv_80
Info : </title>
<path fill="#375588" stroke="#000000" d="M75.67,-1215C75.67,-1215 30.33,-1215 30.33,-1215 27.17,-1215 24,-1211.83 24,-1208.67 24,-1208.67 24,-1202.33 24,-1202.33 24,-1199.17 27.17,-1196 30.33,-1196 30.33,-1196 75.67,-1196 75.67,-1196 78.83,-1196 82,-1199.17 82,-1202.33 82,-1202.33 82,-1208.67 82,-1208.67 82,-1211.83 78.83,-1215 75.67,-1215"/>
<text text-anchor="middle" x="53" y="-1203" font-family="Times,serif" font-size="10.00" fill="#ffffff">40:Conv</text>
</g>
<!-- Name : Clip_79
Info : &#45;&gt;Name : Conv_80
Info :  -->
<g id="edge43" class="edge">
<title>Name : Clip_79
Info : &#45;&gt;Name : Conv_80
Info : </title>
<path fill="none" stroke="black" stroke-width="0.7" d="M53,-1222.76C53,-1221.98 53,-1221.19 53,-1220.38"/>
<polygon fill="black" stroke="black" stroke-width="0.7" points="53,-1215.11 55.25,-1220.11 53,-1217.61 53,-1220.11 53,-1220.11 53,-1220.11 53,-1217.61 50.75,-1220.11 53,-1215.11 53,-1215.11"/>
</g>
<!-- Name : Clip_83
Info :  -->
<g id="node42" class="node">
<title>Name : Clip_83
Info : </title>
<path fill="#375588" stroke="#000000" d="M73.67,-1188C73.67,-1188 32.33,-1188 32.33,-1188 29.17,-1188 26,-1184.83 26,-1181.67 26,-1181.67 26,-1175.33 26,-1175.33 26,-1172.17 29.17,-1169 32.33,-1169 32.33,-1169 73.67,-1169 73.67,-1169 76.83,-1169 80,-1172.17 80,-1175.33 80,-1175.33 80,-1181.67 80,-1181.67 80,-1184.83 76.83,-1188 73.67,-1188"/>
<text text-anchor="middle" x="53" y="-1176" font-family="Times,serif" font-size="10.00" fill="#ffffff">41:Clip</text>
</g>
<!-- Name : Conv_80
Info : &#45;&gt;Name : Clip_83
Info :  -->
<g id="edge44" class="edge">
<title>Name : Conv_80
Info : &#45;&gt;Name : Clip_83
Info : </title>
<path fill="none" stroke="black" stroke-width="0.7" d="M53,-1195.76C53,-1194.98 53,-1194.19 53,-1193.38"/>
<polygon fill="black" stroke="black" stroke-width="0.7" points="53,-1188.11 55.25,-1193.11 53,-1190.61 53,-1193.11 53,-1193.11 53,-1193.11 53,-1190.61 50.75,-1193.11 53,-1188.11 53,-1188.11"/>
</g>
<!-- Name : Conv_84
Info :  -->
<g id="node43" class="node">
<title>Name : Conv_84
Info : </title>
<path fill="#375588" stroke="#000000" d="M75.67,-1161C75.67,-1161 30.33,-1161 30.33,-1161 27.17,-1161 24,-1157.83 24,-1154.67 24,-1154.67 24,-1148.33 24,-1148.33 24,-1145.17 27.17,-1142 30.33,-1142 30.33,-1142 75.67,-1142 75.67,-1142 78.83,-1142 82,-1145.17 82,-1148.33 82,-1148.33 82,-1154.67 82,-1154.67 82,-1157.83 78.83,-1161 75.67,-1161"/>
<text text-anchor="middle" x="53" y="-1149" font-family="Times,serif" font-size="10.00" fill="#ffffff">42:Conv</text>
</g>
<!-- Name : Clip_83
Info : &#45;&gt;Name : Conv_84
Info :  -->
<g id="edge45" class="edge">
<title>Name : Clip_83
Info : &#45;&gt;Name : Conv_84
Info : </title>
<path fill="none" stroke="black" stroke-width="0.7" d="M53,-1168.76C53,-1167.98 53,-1167.19 53,-1166.38"/>
<polygon fill="black" stroke="black" stroke-width="0.7" points="53,-1161.11 55.25,-1166.11 53,-1163.61 53,-1166.11 53,-1166.11 53,-1166.11 53,-1163.61 50.75,-1166.11 53,-1161.11 53,-1161.11"/>
</g>
<!-- Name : Clip_87
Info :  -->
<g id="node44" class="node">
<title>Name : Clip_87
Info : </title>
<path fill="#375588" stroke="#000000" d="M73.67,-1134C73.67,-1134 32.33,-1134 32.33,-1134 29.17,-1134 26,-1130.83 26,-1127.67 26,-1127.67 26,-1121.33 26,-1121.33 26,-1118.17 29.17,-1115 32.33,-1115 32.33,-1115 73.67,-1115 73.67,-1115 76.83,-1115 80,-1118.17 80,-1121.33 80,-1121.33 80,-1127.67 80,-1127.67 80,-1130.83 76.83,-1134 73.67,-1134"/>
<text text-anchor="middle" x="53" y="-1122" font-family="Times,serif" font-size="10.00" fill="#ffffff">43:Clip</text>
</g>
<!-- Name : Conv_84
Info : &#45;&gt;Name : Clip_87
Info :  -->
<g id="edge46" class="edge">
<title>Name : Conv_84
Info : &#45;&gt;Name : Clip_87
Info : </title>
<path fill="none" stroke="black" stroke-width="0.7" d="M53,-1141.76C53,-1140.98 53,-1140.19 53,-1139.38"/>
<polygon fill="black" stroke="black" stroke-width="0.7" points="53,-1134.11 55.25,-1139.11 53,-1136.61 53,-1139.11 53,-1139.11 53,-1139.11 53,-1136.61 50.75,-1139.11 53,-1134.11 53,-1134.11"/>
</g>
<!-- Name : Conv_88
Info :  -->
<g id="node45" class="node">
<title>Name : Conv_88
Info : </title>
<path fill="#375588" stroke="#000000" d="M75.67,-1107C75.67,-1107 30.33,-1107 30.33,-1107 27.17,-1107 24,-1103.83 24,-1100.67 24,-1100.67 24,-1094.33 24,-1094.33 24,-1091.17 27.17,-1088 30.33,-1088 30.33,-1088 75.67,-1088 75.67,-1088 78.83,-1088 82,-1091.17 82,-1094.33 82,-1094.33 82,-1100.67 82,-1100.67 82,-1103.83 78.83,-1107 75.67,-1107"/>
<text text-anchor="middle" x="53" y="-1095" font-family="Times,serif" font-size="10.00" fill="#ffffff">44:Conv</text>
</g>
<!-- Name : Clip_87
Info : &#45;&gt;Name : Conv_88
Info :  -->
<g id="edge47" class="edge">
<title>Name : Clip_87
Info : &#45;&gt;Name : Conv_88
Info : </title>
<path fill="none" stroke="black" stroke-width="0.7" d="M53,-1114.76C53,-1113.98 53,-1113.19 53,-1112.38"/>
<polygon fill="black" stroke="black" stroke-width="0.7" points="53,-1107.11 55.25,-1112.11 53,-1109.61 53,-1112.11 53,-1112.11 53,-1112.11 53,-1109.61 50.75,-1112.11 53,-1107.11 53,-1107.11"/>
</g>
<!-- Name : Clip_91
Info :  -->
<g id="node46" class="node">
<title>Name : Clip_91
Info : </title>
<path fill="#375588" stroke="#000000" d="M73.67,-1080C73.67,-1080 32.33,-1080 32.33,-1080 29.17,-1080 26,-1076.83 26,-1073.67 26,-1073.67 26,-1067.33 26,-1067.33 26,-1064.17 29.17,-1061 32.33,-1061 32.33,-1061 73.67,-1061 73.67,-1061 76.83,-1061 80,-1064.17 80,-1067.33 80,-1067.33 80,-1073.67 80,-1073.67 80,-1076.83 76.83,-1080 73.67,-1080"/>
<text text-anchor="middle" x="53" y="-1068" font-family="Times,serif" font-size="10.00" fill="#ffffff">45:Clip</text>
</g>
<!-- Name : Conv_88
Info : &#45;&gt;Name : Clip_91
Info :  -->
<g id="edge48" class="edge">
<title>Name : Conv_88
Info : &#45;&gt;Name : Clip_91
Info : </title>
<path fill="none" stroke="black" stroke-width="0.7" d="M53,-1087.76C53,-1086.98 53,-1086.19 53,-1085.38"/>
<polygon fill="black" stroke="black" stroke-width="0.7" points="53,-1080.11 55.25,-1085.11 53,-1082.61 53,-1085.11 53,-1085.11 53,-1085.11 53,-1082.61 50.75,-1085.11 53,-1080.11 53,-1080.11"/>
</g>
<!-- Name : Conv_92
Info :  -->
<g id="node47" class="node">
<title>Name : Conv_92
Info : </title>
<path fill="#375588" stroke="#000000" d="M75.67,-1053C75.67,-1053 30.33,-1053 30.33,-1053 27.17,-1053 24,-1049.83 24,-1046.67 24,-1046.67 24,-1040.33 24,-1040.33 24,-1037.17 27.17,-1034 30.33,-1034 30.33,-1034 75.67,-1034 75.67,-1034 78.83,-1034 82,-1037.17 82,-1040.33 82,-1040.33 82,-1046.67 82,-1046.67 82,-1049.83 78.83,-1053 75.67,-1053"/>
<text text-anchor="middle" x="53" y="-1041" font-family="Times,serif" font-size="10.00" fill="#ffffff">46:Conv</text>
</g>
<!-- Name : Clip_91
Info : &#45;&gt;Name : Conv_92
Info :  -->
<g id="edge49" class="edge">
<title>Name : Clip_91
Info : &#45;&gt;Name : Conv_92
Info : </title>
<path fill="none" stroke="black" stroke-width="0.7" d="M53,-1060.76C53,-1059.98 53,-1059.19 53,-1058.38"/>
<polygon fill="black" stroke="black" stroke-width="0.7" points="53,-1053.11 55.25,-1058.11 53,-1055.61 53,-1058.11 53,-1058.11 53,-1058.11 53,-1055.61 50.75,-1058.11 53,-1053.11 53,-1053.11"/>
</g>
<!-- Name : Clip_95
Info :  -->
<g id="node48" class="node">
<title>Name : Clip_95
Info : </title>
<path fill="#375588" stroke="#000000" d="M73.67,-1026C73.67,-1026 32.33,-1026 32.33,-1026 29.17,-1026 26,-1022.83 26,-1019.67 26,-1019.67 26,-1013.33 26,-1013.33 26,-1010.17 29.17,-1007 32.33,-1007 32.33,-1007 73.67,-1007 73.67,-1007 76.83,-1007 80,-1010.17 80,-1013.33 80,-1013.33 80,-1019.67 80,-1019.67 80,-1022.83 76.83,-1026 73.67,-1026"/>
<text text-anchor="middle" x="53" y="-1014" font-family="Times,serif" font-size="10.00" fill="#ffffff">47:Clip</text>
</g>
<!-- Name : Conv_92
Info : &#45;&gt;Name : Clip_95
Info :  -->
<g id="edge50" class="edge">
<title>Name : Conv_92
Info : &#45;&gt;Name : Clip_95
Info : </title>
<path fill="none" stroke="black" stroke-width="0.7" d="M53,-1033.76C53,-1032.98 53,-1032.19 53,-1031.38"/>
<polygon fill="black" stroke="black" stroke-width="0.7" points="53,-1026.11 55.25,-1031.11 53,-1028.61 53,-1031.11 53,-1031.11 53,-1031.11 53,-1028.61 50.75,-1031.11 53,-1026.11 53,-1026.11"/>
</g>
<!-- Name : Conv_96
Info :  -->
<g id="node49" class="node">
<title>Name : Conv_96
Info : </title>
<path fill="#375588" stroke="#000000" d="M75.67,-999C75.67,-999 30.33,-999 30.33,-999 27.17,-999 24,-995.83 24,-992.67 24,-992.67 24,-986.33 24,-986.33 24,-983.17 27.17,-980 30.33,-980 30.33,-980 75.67,-980 75.67,-980 78.83,-980 82,-983.17 82,-986.33 82,-986.33 82,-992.67 82,-992.67 82,-995.83 78.83,-999 75.67,-999"/>
<text text-anchor="middle" x="53" y="-987" font-family="Times,serif" font-size="10.00" fill="#ffffff">48:Conv</text>
</g>
<!-- Name : Clip_95
Info : &#45;&gt;Name : Conv_96
Info :  -->
<g id="edge51" class="edge">
<title>Name : Clip_95
Info : &#45;&gt;Name : Conv_96
Info : </title>
<path fill="none" stroke="black" stroke-width="0.7" d="M53,-1006.76C53,-1005.98 53,-1005.19 53,-1004.38"/>
<polygon fill="black" stroke="black" stroke-width="0.7" points="53,-999.11 55.25,-1004.11 53,-1001.61 53,-1004.11 53,-1004.11 53,-1004.11 53,-1001.61 50.75,-1004.11 53,-999.11 53,-999.11"/>
</g>
<!-- Name : Clip_99
Info :  -->
<g id="node50" class="node">
<title>Name : Clip_99
Info : </title>
<path fill="#375588" stroke="#000000" d="M73.67,-972C73.67,-972 32.33,-972 32.33,-972 29.17,-972 26,-968.83 26,-965.67 26,-965.67 26,-959.33 26,-959.33 26,-956.17 29.17,-953 32.33,-953 32.33,-953 73.67,-953 73.67,-953 76.83,-953 80,-956.17 80,-959.33 80,-959.33 80,-965.67 80,-965.67 80,-968.83 76.83,-972 73.67,-972"/>
<text text-anchor="middle" x="53" y="-960" font-family="Times,serif" font-size="10.00" fill="#ffffff">49:Clip</text>
</g>
<!-- Name : Conv_96
Info : &#45;&gt;Name : Clip_99
Info :  -->
<g id="edge52" class="edge">
<title>Name : Conv_96
Info : &#45;&gt;Name : Clip_99
Info : </title>
<path fill="none" stroke="black" stroke-width="0.7" d="M53,-979.76C53,-978.98 53,-978.19 53,-977.38"/>
<polygon fill="black" stroke="black" stroke-width="0.7" points="53,-972.11 55.25,-977.11 53,-974.61 53,-977.11 53,-977.11 53,-977.11 53,-974.61 50.75,-977.11 53,-972.11 53,-972.11"/>
</g>
<!-- Name : Conv_100
Info :  -->
<g id="node51" class="node">
<title>Name : Conv_100
Info : </title>
<path fill="#375588" stroke="#000000" d="M75.67,-945C75.67,-945 30.33,-945 30.33,-945 27.17,-945 24,-941.83 24,-938.67 24,-938.67 24,-932.33 24,-932.33 24,-929.17 27.17,-926 30.33,-926 30.33,-926 75.67,-926 75.67,-926 78.83,-926 82,-929.17 82,-932.33 82,-932.33 82,-938.67 82,-938.67 82,-941.83 78.83,-945 75.67,-945"/>
<text text-anchor="middle" x="53" y="-933" font-family="Times,serif" font-size="10.00" fill="#ffffff">50:Conv</text>
</g>
<!-- Name : Clip_99
Info : &#45;&gt;Name : Conv_100
Info :  -->
<g id="edge53" class="edge">
<title>Name : Clip_99
Info : &#45;&gt;Name : Conv_100
Info : </title>
<path fill="none" stroke="black" stroke-width="0.7" d="M53,-952.76C53,-951.98 53,-951.19 53,-950.38"/>
<polygon fill="black" stroke="black" stroke-width="0.7" points="53,-945.11 55.25,-950.11 53,-947.61 53,-950.11 53,-950.11 53,-950.11 53,-947.61 50.75,-950.11 53,-945.11 53,-945.11"/>
</g>
<!-- Name : Clip_103
Info :  -->
<g id="node52" class="node">
<title>Name : Clip_103
Info : </title>
<path fill="#375588" stroke="#000000" d="M73.67,-918C73.67,-918 32.33,-918 32.33,-918 29.17,-918 26,-914.83 26,-911.67 26,-911.67 26,-905.33 26,-905.33 26,-902.17 29.17,-899 32.33,-899 32.33,-899 73.67,-899 73.67,-899 76.83,-899 80,-902.17 80,-905.33 80,-905.33 80,-911.67 80,-911.67 80,-914.83 76.83,-918 73.67,-918"/>
<text text-anchor="middle" x="53" y="-906" font-family="Times,serif" font-size="10.00" fill="#ffffff">51:Clip</text>
</g>
<!-- Name : Conv_100
Info : &#45;&gt;Name : Clip_103
Info :  -->
<g id="edge54" class="edge">
<title>Name : Conv_100
Info : &#45;&gt;Name : Clip_103
Info : </title>
<path fill="none" stroke="black" stroke-width="0.7" d="M53,-925.76C53,-924.98 53,-924.19 53,-923.38"/>
<polygon fill="black" stroke="black" stroke-width="0.7" points="53,-918.11 55.25,-923.11 53,-920.61 53,-923.11 53,-923.11 53,-923.11 53,-920.61 50.75,-923.11 53,-918.11 53,-918.11"/>
</g>
<!-- Name : Conv_104
Info :  -->
<g id="node53" class="node">
<title>Name : Conv_104
Info : </title>
<path fill="#375588" stroke="#000000" d="M75.67,-891C75.67,-891 30.33,-891 30.33,-891 27.17,-891 24,-887.83 24,-884.67 24,-884.67 24,-878.33 24,-878.33 24,-875.17 27.17,-872 30.33,-872 30.33,-872 75.67,-872 75.67,-872 78.83,-872 82,-875.17 82,-878.33 82,-878.33 82,-884.67 82,-884.67 82,-887.83 78.83,-891 75.67,-891"/>
<text text-anchor="middle" x="53" y="-879" font-family="Times,serif" font-size="10.00" fill="#ffffff">52:Conv</text>
</g>
<!-- Name : Clip_103
Info : &#45;&gt;Name : Conv_104
Info :  -->
<g id="edge55" class="edge">
<title>Name : Clip_103
Info : &#45;&gt;Name : Conv_104
Info : </title>
<path fill="none" stroke="black" stroke-width="0.7" d="M53,-898.76C53,-897.98 53,-897.19 53,-896.38"/>
<polygon fill="black" stroke="black" stroke-width="0.7" points="53,-891.11 55.25,-896.11 53,-893.61 53,-896.11 53,-896.11 53,-896.11 53,-893.61 50.75,-896.11 53,-891.11 53,-891.11"/>
</g>
<!-- Name : Clip_107
Info :  -->
<g id="node54" class="node">
<title>Name : Clip_107
Info : </title>
<path fill="#375588" stroke="#000000" d="M73.67,-864C73.67,-864 32.33,-864 32.33,-864 29.17,-864 26,-860.83 26,-857.67 26,-857.67 26,-851.33 26,-851.33 26,-848.17 29.17,-845 32.33,-845 32.33,-845 73.67,-845 73.67,-845 76.83,-845 80,-848.17 80,-851.33 80,-851.33 80,-857.67 80,-857.67 80,-860.83 76.83,-864 73.67,-864"/>
<text text-anchor="middle" x="53" y="-852" font-family="Times,serif" font-size="10.00" fill="#ffffff">53:Clip</text>
</g>
<!-- Name : Conv_104
Info : &#45;&gt;Name : Clip_107
Info :  -->
<g id="edge56" class="edge">
<title>Name : Conv_104
Info : &#45;&gt;Name : Clip_107
Info : </title>
<path fill="none" stroke="black" stroke-width="0.7" d="M53,-871.76C53,-870.98 53,-870.19 53,-869.38"/>
<polygon fill="black" stroke="black" stroke-width="0.7" points="53,-864.11 55.25,-869.11 53,-866.61 53,-869.11 53,-869.11 53,-869.11 53,-866.61 50.75,-869.11 53,-864.11 53,-864.11"/>
</g>
<!-- Name : Conv_108
Info :  -->
<g id="node55" class="node">
<title>Name : Conv_108
Info : </title>
<path fill="#375588" stroke="#000000" d="M75.67,-837C75.67,-837 30.33,-837 30.33,-837 27.17,-837 24,-833.83 24,-830.67 24,-830.67 24,-824.33 24,-824.33 24,-821.17 27.17,-818 30.33,-818 30.33,-818 75.67,-818 75.67,-818 78.83,-818 82,-821.17 82,-824.33 82,-824.33 82,-830.67 82,-830.67 82,-833.83 78.83,-837 75.67,-837"/>
<text text-anchor="middle" x="53" y="-825" font-family="Times,serif" font-size="10.00" fill="#ffffff">54:Conv</text>
</g>
<!-- Name : Clip_107
Info : &#45;&gt;Name : Conv_108
Info :  -->
<g id="edge57" class="edge">
<title>Name : Clip_107
Info : &#45;&gt;Name : Conv_108
Info : </title>
<path fill="none" stroke="black" stroke-width="0.7" d="M53,-844.76C53,-843.98 53,-843.19 53,-842.38"/>
<polygon fill="black" stroke="black" stroke-width="0.7" points="53,-837.11 55.25,-842.11 53,-839.61 53,-842.11 53,-842.11 53,-842.11 53,-839.61 50.75,-842.11 53,-837.11 53,-837.11"/>
</g>
<!-- Name : Relu_109
Info :  -->
<g id="node56" class="node">
<title>Name : Relu_109
Info : </title>
<path fill="#375588" stroke="#000000" d="M74.17,-810C74.17,-810 31.83,-810 31.83,-810 28.67,-810 25.5,-806.83 25.5,-803.67 25.5,-803.67 25.5,-797.33 25.5,-797.33 25.5,-794.17 28.67,-791 31.83,-791 31.83,-791 74.17,-791 74.17,-791 77.33,-791 80.5,-794.17 80.5,-797.33 80.5,-797.33 80.5,-803.67 80.5,-803.67 80.5,-806.83 77.33,-810 74.17,-810"/>
<text text-anchor="middle" x="53" y="-798" font-family="Times,serif" font-size="10.00" fill="#ffffff">55:Relu</text>
</g>
<!-- Name : Conv_108
Info : &#45;&gt;Name : Relu_109
Info :  -->
<g id="edge58" class="edge">
<title>Name : Conv_108
Info : &#45;&gt;Name : Relu_109
Info : </title>
<path fill="none" stroke="black" stroke-width="0.7" d="M53,-817.76C53,-816.98 53,-816.19 53,-815.38"/>
<polygon fill="black" stroke="black" stroke-width="0.7" points="53,-810.11 55.25,-815.11 53,-812.61 53,-815.11 53,-815.11 53,-815.11 53,-812.61 50.75,-815.11 53,-810.11 53,-810.11"/>
</g>
<!-- Name : Conv_110
Info :  -->
<g id="node57" class="node">
<title>Name : Conv_110
Info : </title>
<path fill="#375588" stroke="#000000" d="M74.67,-783C74.67,-783 29.33,-783 29.33,-783 26.17,-783 23,-779.83 23,-776.67 23,-776.67 23,-770.33 23,-770.33 23,-767.17 26.17,-764 29.33,-764 29.33,-764 74.67,-764 74.67,-764 77.83,-764 81,-767.17 81,-770.33 81,-770.33 81,-776.67 81,-776.67 81,-779.83 77.83,-783 74.67,-783"/>
<text text-anchor="middle" x="52" y="-771" font-family="Times,serif" font-size="10.00" fill="#ffffff">56:Conv</text>
</g>
<!-- Name : Relu_109
Info : &#45;&gt;Name : Conv_110
Info :  -->
<g id="edge59" class="edge">
<title>Name : Relu_109
Info : &#45;&gt;Name : Conv_110
Info : </title>
<path fill="none" stroke="black" stroke-width="0.7" d="M52.65,-790.76C52.62,-789.98 52.59,-789.19 52.56,-788.38"/>
<polygon fill="black" stroke="black" stroke-width="0.7" points="52.34,-783.11 54.79,-788.02 52.44,-785.61 52.54,-788.11 52.54,-788.11 52.54,-788.11 52.44,-785.61 50.3,-788.2 52.34,-783.11 52.34,-783.11"/>
</g>
<!-- Name : Relu_111
Info :  -->
<g id="node58" class="node">
<title>Name : Relu_111
Info : </title>
<path fill="#375588" stroke="#000000" d="M71.17,-756C71.17,-756 28.83,-756 28.83,-756 25.67,-756 22.5,-752.83 22.5,-749.67 22.5,-749.67 22.5,-743.33 22.5,-743.33 22.5,-740.17 25.67,-737 28.83,-737 28.83,-737 71.17,-737 71.17,-737 74.33,-737 77.5,-740.17 77.5,-743.33 77.5,-743.33 77.5,-749.67 77.5,-749.67 77.5,-752.83 74.33,-756 71.17,-756"/>
<text text-anchor="middle" x="50" y="-744" font-family="Times,serif" font-size="10.00" fill="#ffffff">57:Relu</text>
</g>
<!-- Name : Conv_110
Info : &#45;&gt;Name : Relu_111
Info :  -->
<g id="edge60" class="edge">
<title>Name : Conv_110
Info : &#45;&gt;Name : Relu_111
Info : </title>
<path fill="none" stroke="black" stroke-width="0.7" d="M51.3,-763.76C51.24,-762.98 51.17,-762.19 51.11,-761.38"/>
<polygon fill="black" stroke="black" stroke-width="0.7" points="50.69,-756.11 53.33,-760.92 50.89,-758.6 51.09,-761.1 51.09,-761.1 51.09,-761.1 50.89,-758.6 48.84,-761.28 50.69,-756.11 50.69,-756.11"/>
</g>
<!-- Name : Resize_113
Info : INFORMATION &#45;&#45; [TIDL_ResizeLayer] &#160;Any resize ratio which is power of 2 and greater than 4 will be placed by combination of 4x4 resize layer and 2x2 resize layer. For example a 8x8 resize will be replaced by 4x4 resize followed by 2x2 resize. -->
<g id="node59" class="node">
<title>Name : Resize_113
Info : INFORMATION &#45;&#45; [TIDL_ResizeLayer] &#160;Any resize ratio which is power of 2 and greater than 4 will be placed by combination of 4x4 resize layer and 2x2 resize layer. For example a 8x8 resize will be replaced by 4x4 resize followed by 2x2 resize.</title>
<path fill="#375588" stroke="#000000" d="M75.17,-729C75.17,-729 22.83,-729 22.83,-729 19.67,-729 16.5,-725.83 16.5,-722.67 16.5,-722.67 16.5,-716.33 16.5,-716.33 16.5,-713.17 19.67,-710 22.83,-710 22.83,-710 75.17,-710 75.17,-710 78.33,-710 81.5,-713.17 81.5,-716.33 81.5,-716.33 81.5,-722.67 81.5,-722.67 81.5,-725.83 78.33,-729 75.17,-729"/>
<text text-anchor="middle" x="49" y="-717" font-family="Times,serif" font-size="10.00" fill="#ffffff">58:Resize</text>
</g>
<!-- Name : Relu_111
Info : &#45;&gt;Name : Resize_113
Info : INFORMATION &#45;&#45; [TIDL_ResizeLayer] &#160;Any resize ratio which is power of 2 and greater than 4 will be placed by combination of 4x4 resize layer and 2x2 resize layer. For example a 8x8 resize will be replaced by 4x4 resize followed by 2x2 resize. -->
<g id="edge61" class="edge">
<title>Name : Relu_111
Info : &#45;&gt;Name : Resize_113
Info : INFORMATION &#45;&#45; [TIDL_ResizeLayer] &#160;Any resize ratio which is power of 2 and greater than 4 will be placed by combination of 4x4 resize layer and 2x2 resize layer. For example a 8x8 resize will be replaced by 4x4 resize followed by 2x2 resize.</title>
<path fill="none" stroke="black" stroke-width="0.7" d="M49.65,-736.76C49.62,-735.98 49.59,-735.19 49.56,-734.38"/>
<polygon fill="black" stroke="black" stroke-width="0.7" points="49.34,-729.11 51.79,-734.02 49.44,-731.61 49.54,-734.11 49.54,-734.11 49.54,-734.11 49.44,-731.61 47.3,-734.2 49.34,-729.11 49.34,-729.11"/>
</g>
<!-- Name : Conv_114
Info :  -->
<g id="node60" class="node">
<title>Name : Conv_114
Info : </title>
<path fill="#375588" stroke="#000000" d="M71.67,-702C71.67,-702 26.33,-702 26.33,-702 23.17,-702 20,-698.83 20,-695.67 20,-695.67 20,-689.33 20,-689.33 20,-686.17 23.17,-683 26.33,-683 26.33,-683 71.67,-683 71.67,-683 74.83,-683 78,-686.17 78,-689.33 78,-689.33 78,-695.67 78,-695.67 78,-698.83 74.83,-702 71.67,-702"/>
<text text-anchor="middle" x="49" y="-690" font-family="Times,serif" font-size="10.00" fill="#ffffff">59:Conv</text>
</g>
<!-- Name : Resize_113
Info : INFORMATION &#45;&#45; [TIDL_ResizeLayer] &#160;Any resize ratio which is power of 2 and greater than 4 will be placed by combination of 4x4 resize layer and 2x2 resize layer. For example a 8x8 resize will be replaced by 4x4 resize followed by 2x2 resize.&#45;&gt;Name : Conv_114
Info :  -->
<g id="edge62" class="edge">
<title>Name : Resize_113
Info : INFORMATION &#45;&#45; [TIDL_ResizeLayer] &#160;Any resize ratio which is power of 2 and greater than 4 will be placed by combination of 4x4 resize layer and 2x2 resize layer. For example a 8x8 resize will be replaced by 4x4 resize followed by 2x2 resize.&#45;&gt;Name : Conv_114
Info : </title>
<path fill="none" stroke="black" stroke-width="0.7" d="M49,-709.76C49,-708.98 49,-708.19 49,-707.38"/>
<polygon fill="black" stroke="black" stroke-width="0.7" points="49,-702.11 51.25,-707.11 49,-704.61 49,-707.11 49,-707.11 49,-707.11 49,-704.61 46.75,-707.11 49,-702.11 49,-702.11"/>
</g>
<!-- Name : Relu_115
Info :  -->
<g id="node61" class="node">
<title>Name : Relu_115
Info : </title>
<path fill="#375588" stroke="#000000" d="M70.17,-675C70.17,-675 27.83,-675 27.83,-675 24.67,-675 21.5,-671.83 21.5,-668.67 21.5,-668.67 21.5,-662.33 21.5,-662.33 21.5,-659.17 24.67,-656 27.83,-656 27.83,-656 70.17,-656 70.17,-656 73.33,-656 76.5,-659.17 76.5,-662.33 76.5,-662.33 76.5,-668.67 76.5,-668.67 76.5,-671.83 73.33,-675 70.17,-675"/>
<text text-anchor="middle" x="49" y="-663" font-family="Times,serif" font-size="10.00" fill="#ffffff">60:Relu</text>
</g>
<!-- Name : Conv_114
Info : &#45;&gt;Name : Relu_115
Info :  -->
<g id="edge63" class="edge">
<title>Name : Conv_114
Info : &#45;&gt;Name : Relu_115
Info : </title>
<path fill="none" stroke="black" stroke-width="0.7" d="M49,-682.76C49,-681.98 49,-681.19 49,-680.38"/>
<polygon fill="black" stroke="black" stroke-width="0.7" points="49,-675.11 51.25,-680.11 49,-677.61 49,-680.11 49,-680.11 49,-680.11 49,-677.61 46.75,-680.11 49,-675.11 49,-675.11"/>
</g>
<!-- Name : Conv_116
Info :  -->
<g id="node62" class="node">
<title>Name : Conv_116
Info : </title>
<path fill="#375588" stroke="#000000" d="M71.67,-648C71.67,-648 26.33,-648 26.33,-648 23.17,-648 20,-644.83 20,-641.67 20,-641.67 20,-635.33 20,-635.33 20,-632.17 23.17,-629 26.33,-629 26.33,-629 71.67,-629 71.67,-629 74.83,-629 78,-632.17 78,-635.33 78,-635.33 78,-641.67 78,-641.67 78,-644.83 74.83,-648 71.67,-648"/>
<text text-anchor="middle" x="49" y="-636" font-family="Times,serif" font-size="10.00" fill="#ffffff">61:Conv</text>
</g>
<!-- Name : Relu_115
Info : &#45;&gt;Name : Conv_116
Info :  -->
<g id="edge64" class="edge">
<title>Name : Relu_115
Info : &#45;&gt;Name : Conv_116
Info : </title>
<path fill="none" stroke="black" stroke-width="0.7" d="M49,-655.76C49,-654.98 49,-654.19 49,-653.38"/>
<polygon fill="black" stroke="black" stroke-width="0.7" points="49,-648.11 51.25,-653.11 49,-650.61 49,-653.11 49,-653.11 49,-653.11 49,-650.61 46.75,-653.11 49,-648.11 49,-648.11"/>
</g>
<!-- Name : Relu_117
Info :  -->
<g id="node63" class="node">
<title>Name : Relu_117
Info : </title>
<path fill="#375588" stroke="#000000" d="M70.17,-621C70.17,-621 27.83,-621 27.83,-621 24.67,-621 21.5,-617.83 21.5,-614.67 21.5,-614.67 21.5,-608.33 21.5,-608.33 21.5,-605.17 24.67,-602 27.83,-602 27.83,-602 70.17,-602 70.17,-602 73.33,-602 76.5,-605.17 76.5,-608.33 76.5,-608.33 76.5,-614.67 76.5,-614.67 76.5,-617.83 73.33,-621 70.17,-621"/>
<text text-anchor="middle" x="49" y="-609" font-family="Times,serif" font-size="10.00" fill="#ffffff">62:Relu</text>
</g>
<!-- Name : Conv_116
Info : &#45;&gt;Name : Relu_117
Info :  -->
<g id="edge65" class="edge">
<title>Name : Conv_116
Info : &#45;&gt;Name : Relu_117
Info : </title>
<path fill="none" stroke="black" stroke-width="0.7" d="M49,-628.76C49,-627.98 49,-627.19 49,-626.38"/>
<polygon fill="black" stroke="black" stroke-width="0.7" points="49,-621.11 51.25,-626.11 49,-623.61 49,-626.11 49,-626.11 49,-626.11 49,-623.61 46.75,-626.11 49,-621.11 49,-621.11"/>
</g>
<!-- Name : Resize_119
Info : INFORMATION &#45;&#45; [TIDL_ResizeLayer] &#160;Any resize ratio which is power of 2 and greater than 4 will be placed by combination of 4x4 resize layer and 2x2 resize layer. For example a 8x8 resize will be replaced by 4x4 resize followed by 2x2 resize. -->
<g id="node64" class="node">
<title>Name : Resize_119
Info : INFORMATION &#45;&#45; [TIDL_ResizeLayer] &#160;Any resize ratio which is power of 2 and greater than 4 will be placed by combination of 4x4 resize layer and 2x2 resize layer. For example a 8x8 resize will be replaced by 4x4 resize followed by 2x2 resize.</title>
<path fill="#375588" stroke="#000000" d="M75.17,-594C75.17,-594 22.83,-594 22.83,-594 19.67,-594 16.5,-590.83 16.5,-587.67 16.5,-587.67 16.5,-581.33 16.5,-581.33 16.5,-578.17 19.67,-575 22.83,-575 22.83,-575 75.17,-575 75.17,-575 78.33,-575 81.5,-578.17 81.5,-581.33 81.5,-581.33 81.5,-587.67 81.5,-587.67 81.5,-590.83 78.33,-594 75.17,-594"/>
<text text-anchor="middle" x="49" y="-582" font-family="Times,serif" font-size="10.00" fill="#ffffff">63:Resize</text>
</g>
<!-- Name : Relu_117
Info : &#45;&gt;Name : Resize_119
Info : INFORMATION &#45;&#45; [TIDL_ResizeLayer] &#160;Any resize ratio which is power of 2 and greater than 4 will be placed by combination of 4x4 resize layer and 2x2 resize layer. For example a 8x8 resize will be replaced by 4x4 resize followed by 2x2 resize. -->
<g id="edge66" class="edge">
<title>Name : Relu_117
Info : &#45;&gt;Name : Resize_119
Info : INFORMATION &#45;&#45; [TIDL_ResizeLayer] &#160;Any resize ratio which is power of 2 and greater than 4 will be placed by combination of 4x4 resize layer and 2x2 resize layer. For example a 8x8 resize will be replaced by 4x4 resize followed by 2x2 resize.</title>
<path fill="none" stroke="black" stroke-width="0.7" d="M49,-601.76C49,-600.98 49,-600.19 49,-599.38"/>
<polygon fill="black" stroke="black" stroke-width="0.7" points="49,-594.11 51.25,-599.11 49,-596.61 49,-599.11 49,-599.11 49,-599.11 49,-596.61 46.75,-599.11 49,-594.11 49,-594.11"/>
</g>
<!-- Name : Resize_119
Info : INFORMATION &#45;&#45; [TIDL_ResizeLayer] &#160;Any resize ratio which is power of 2 and greater than 4 will be placed by combination of 4x4 resize layer and 2x2 resize layer. For example a 8x8 resize will be replaced by 4x4 resize followed by 2x2 resize.&#45;&gt;Name : Add_120
Info :  -->
<g id="edge67" class="edge">
<title>Name : Resize_119
Info : INFORMATION &#45;&#45; [TIDL_ResizeLayer] &#160;Any resize ratio which is power of 2 and greater than 4 will be placed by combination of 4x4 resize layer and 2x2 resize layer. For example a 8x8 resize will be replaced by 4x4 resize followed by 2x2 resize.&#45;&gt;Name : Add_120
Info : </title>
<path fill="none" stroke="black" stroke-width="0.7" d="M56,-574.76C56.86,-573.67 57.76,-572.55 58.67,-571.42"/>
<polygon fill="black" stroke="black" stroke-width="0.7" points="62.11,-567.11 60.74,-572.42 60.55,-569.06 58.99,-571.02 58.99,-571.02 58.99,-571.02 60.55,-569.06 57.23,-569.61 62.11,-567.11 62.11,-567.11"/>
</g>
<!-- Name : Conv_121
Info :  -->
<g id="node66" class="node">
<title>Name : Conv_121
Info : </title>
<path fill="#375588" stroke="#000000" d="M91.67,-540C91.67,-540 46.33,-540 46.33,-540 43.17,-540 40,-536.83 40,-533.67 40,-533.67 40,-527.33 40,-527.33 40,-524.17 43.17,-521 46.33,-521 46.33,-521 91.67,-521 91.67,-521 94.83,-521 98,-524.17 98,-527.33 98,-527.33 98,-533.67 98,-533.67 98,-536.83 94.83,-540 91.67,-540"/>
<text text-anchor="middle" x="69" y="-528" font-family="Times,serif" font-size="10.00" fill="#ffffff">65:Conv</text>
</g>
<!-- Name : Add_120
Info : &#45;&gt;Name : Conv_121
Info :  -->
<g id="edge68" class="edge">
<title>Name : Add_120
Info : &#45;&gt;Name : Conv_121
Info : </title>
<path fill="none" stroke="black" stroke-width="0.7" d="M69,-547.76C69,-546.98 69,-546.19 69,-545.38"/>
<polygon fill="black" stroke="black" stroke-width="0.7" points="69,-540.11 71.25,-545.11 69,-542.61 69,-545.11 69,-545.11 69,-545.11 69,-542.61 66.75,-545.11 69,-540.11 69,-540.11"/>
</g>
<!-- Name : Relu_122
Info :  -->
<g id="node67" class="node">
<title>Name : Relu_122
Info : </title>
<path fill="#375588" stroke="#000000" d="M90.17,-513C90.17,-513 47.83,-513 47.83,-513 44.67,-513 41.5,-509.83 41.5,-506.67 41.5,-506.67 41.5,-500.33 41.5,-500.33 41.5,-497.17 44.67,-494 47.83,-494 47.83,-494 90.17,-494 90.17,-494 93.33,-494 96.5,-497.17 96.5,-500.33 96.5,-500.33 96.5,-506.67 96.5,-506.67 96.5,-509.83 93.33,-513 90.17,-513"/>
<text text-anchor="middle" x="69" y="-501" font-family="Times,serif" font-size="10.00" fill="#ffffff">66:Relu</text>
</g>
<!-- Name : Conv_121
Info : &#45;&gt;Name : Relu_122
Info :  -->
<g id="edge69" class="edge">
<title>Name : Conv_121
Info : &#45;&gt;Name : Relu_122
Info : </title>
<path fill="none" stroke="black" stroke-width="0.7" d="M69,-520.76C69,-519.98 69,-519.19 69,-518.38"/>
<polygon fill="black" stroke="black" stroke-width="0.7" points="69,-513.11 71.25,-518.11 69,-515.61 69,-518.11 69,-518.11 69,-518.11 69,-515.61 66.75,-518.11 69,-513.11 69,-513.11"/>
</g>
<!-- Name : Conv_123
Info :  -->
<g id="node68" class="node">
<title>Name : Conv_123
Info : </title>
<path fill="#375588" stroke="#000000" d="M91.67,-486C91.67,-486 46.33,-486 46.33,-486 43.17,-486 40,-482.83 40,-479.67 40,-479.67 40,-473.33 40,-473.33 40,-470.17 43.17,-467 46.33,-467 46.33,-467 91.67,-467 91.67,-467 94.83,-467 98,-470.17 98,-473.33 98,-473.33 98,-479.67 98,-479.67 98,-482.83 94.83,-486 91.67,-486"/>
<text text-anchor="middle" x="69" y="-474" font-family="Times,serif" font-size="10.00" fill="#ffffff">67:Conv</text>
</g>
<!-- Name : Relu_122
Info : &#45;&gt;Name : Conv_123
Info :  -->
<g id="edge70" class="edge">
<title>Name : Relu_122
Info : &#45;&gt;Name : Conv_123
Info : </title>
<path fill="none" stroke="black" stroke-width="0.7" d="M69,-493.76C69,-492.98 69,-492.19 69,-491.38"/>
<polygon fill="black" stroke="black" stroke-width="0.7" points="69,-486.11 71.25,-491.11 69,-488.61 69,-491.11 69,-491.11 69,-491.11 69,-488.61 66.75,-491.11 69,-486.11 69,-486.11"/>
</g>
<!-- Name : Relu_124
Info :  -->
<g id="node69" class="node">
<title>Name : Relu_124
Info : </title>
<path fill="#375588" stroke="#000000" d="M90.17,-459C90.17,-459 47.83,-459 47.83,-459 44.67,-459 41.5,-455.83 41.5,-452.67 41.5,-452.67 41.5,-446.33 41.5,-446.33 41.5,-443.17 44.67,-440 47.83,-440 47.83,-440 90.17,-440 90.17,-440 93.33,-440 96.5,-443.17 96.5,-446.33 96.5,-446.33 96.5,-452.67 96.5,-452.67 96.5,-455.83 93.33,-459 90.17,-459"/>
<text text-anchor="middle" x="69" y="-447" font-family="Times,serif" font-size="10.00" fill="#ffffff">68:Relu</text>
</g>
<!-- Name : Conv_123
Info : &#45;&gt;Name : Relu_124
Info :  -->
<g id="edge71" class="edge">
<title>Name : Conv_123
Info : &#45;&gt;Name : Relu_124
Info : </title>
<path fill="none" stroke="black" stroke-width="0.7" d="M69,-466.76C69,-465.98 69,-465.19 69,-464.38"/>
<polygon fill="black" stroke="black" stroke-width="0.7" points="69,-459.11 71.25,-464.11 69,-461.61 69,-464.11 69,-464.11 69,-464.11 69,-461.61 66.75,-464.11 69,-459.11 69,-459.11"/>
</g>
<!-- Name : Resize_126
Info : INFORMATION &#45;&#45; [TIDL_ResizeLayer] &#160;Any resize ratio which is power of 2 and greater than 4 will be placed by combination of 4x4 resize layer and 2x2 resize layer. For example a 8x8 resize will be replaced by 4x4 resize followed by 2x2 resize. -->
<g id="node70" class="node">
<title>Name : Resize_126
Info : INFORMATION &#45;&#45; [TIDL_ResizeLayer] &#160;Any resize ratio which is power of 2 and greater than 4 will be placed by combination of 4x4 resize layer and 2x2 resize layer. For example a 8x8 resize will be replaced by 4x4 resize followed by 2x2 resize.</title>
<path fill="#375588" stroke="#000000" d="M95.17,-432C95.17,-432 42.83,-432 42.83,-432 39.67,-432 36.5,-428.83 36.5,-425.67 36.5,-425.67 36.5,-419.33 36.5,-419.33 36.5,-416.17 39.67,-413 42.83,-413 42.83,-413 95.17,-413 95.17,-413 98.33,-413 101.5,-416.17 101.5,-419.33 101.5,-419.33 101.5,-425.67 101.5,-425.67 101.5,-428.83 98.33,-432 95.17,-432"/>
<text text-anchor="middle" x="69" y="-420" font-family="Times,serif" font-size="10.00" fill="#ffffff">69:Resize</text>
</g>
<!-- Name : Relu_124
Info : &#45;&gt;Name : Resize_126
Info : INFORMATION &#45;&#45; [TIDL_ResizeLayer] &#160;Any resize ratio which is power of 2 and greater than 4 will be placed by combination of 4x4 resize layer and 2x2 resize layer. For example a 8x8 resize will be replaced by 4x4 resize followed by 2x2 resize. -->
<g id="edge72" class="edge">
<title>Name : Relu_124
Info : &#45;&gt;Name : Resize_126
Info : INFORMATION &#45;&#45; [TIDL_ResizeLayer] &#160;Any resize ratio which is power of 2 and greater than 4 will be placed by combination of 4x4 resize layer and 2x2 resize layer. For example a 8x8 resize will be replaced by 4x4 resize followed by 2x2 resize.</title>
<path fill="none" stroke="black" stroke-width="0.7" d="M69,-439.76C69,-438.98 69,-438.19 69,-437.38"/>
<polygon fill="black" stroke="black" stroke-width="0.7" points="69,-432.11 71.25,-437.11 69,-434.61 69,-437.11 69,-437.11 69,-437.11 69,-434.61 66.75,-437.11 69,-432.11 69,-432.11"/>
</g>
<!-- Name : Resize_126
Info : INFORMATION &#45;&#45; [TIDL_ResizeLayer] &#160;Any resize ratio which is power of 2 and greater than 4 will be placed by combination of 4x4 resize layer and 2x2 resize layer. For example a 8x8 resize will be replaced by 4x4 resize followed by 2x2 resize.&#45;&gt;Name : Add_127
Info :  -->
<g id="edge73" class="edge">
<title>Name : Resize_126
Info : INFORMATION &#45;&#45; [TIDL_ResizeLayer] &#160;Any resize ratio which is power of 2 and greater than 4 will be placed by combination of 4x4 resize layer and 2x2 resize layer. For example a 8x8 resize will be replaced by 4x4 resize followed by 2x2 resize.&#45;&gt;Name : Add_127
Info : </title>
<path fill="none" stroke="black" stroke-width="0.7" d="M76,-412.76C76.86,-411.67 77.76,-410.55 78.67,-409.42"/>
<polygon fill="black" stroke="black" stroke-width="0.7" points="82.11,-405.11 80.74,-410.42 80.55,-407.06 78.99,-409.02 78.99,-409.02 78.99,-409.02 80.55,-407.06 77.23,-407.61 82.11,-405.11 82.11,-405.11"/>
</g>
<!-- Name : Conv_128
Info :  -->
<g id="node72" class="node">
<title>Name : Conv_128
Info : </title>
<path fill="#375588" stroke="#000000" d="M111.67,-378C111.67,-378 66.33,-378 66.33,-378 63.17,-378 60,-374.83 60,-371.67 60,-371.67 60,-365.33 60,-365.33 60,-362.17 63.17,-359 66.33,-359 66.33,-359 111.67,-359 111.67,-359 114.83,-359 118,-362.17 118,-365.33 118,-365.33 118,-371.67 118,-371.67 118,-374.83 114.83,-378 111.67,-378"/>
<text text-anchor="middle" x="89" y="-366" font-family="Times,serif" font-size="10.00" fill="#ffffff">71:Conv</text>
</g>
<!-- Name : Add_127
Info : &#45;&gt;Name : Conv_128
Info :  -->
<g id="edge74" class="edge">
<title>Name : Add_127
Info : &#45;&gt;Name : Conv_128
Info : </title>
<path fill="none" stroke="black" stroke-width="0.7" d="M89,-385.76C89,-384.98 89,-384.19 89,-383.38"/>
<polygon fill="black" stroke="black" stroke-width="0.7" points="89,-378.11 91.25,-383.11 89,-380.61 89,-383.11 89,-383.11 89,-383.11 89,-380.61 86.75,-383.11 89,-378.11 89,-378.11"/>
</g>
<!-- Name : Relu_129
Info :  -->
<g id="node73" class="node">
<title>Name : Relu_129
Info : </title>
<path fill="#375588" stroke="#000000" d="M110.17,-351C110.17,-351 67.83,-351 67.83,-351 64.67,-351 61.5,-347.83 61.5,-344.67 61.5,-344.67 61.5,-338.33 61.5,-338.33 61.5,-335.17 64.67,-332 67.83,-332 67.83,-332 110.17,-332 110.17,-332 113.33,-332 116.5,-335.17 116.5,-338.33 116.5,-338.33 116.5,-344.67 116.5,-344.67 116.5,-347.83 113.33,-351 110.17,-351"/>
<text text-anchor="middle" x="89" y="-339" font-family="Times,serif" font-size="10.00" fill="#ffffff">72:Relu</text>
</g>
<!-- Name : Conv_128
Info : &#45;&gt;Name : Relu_129
Info :  -->
<g id="edge75" class="edge">
<title>Name : Conv_128
Info : &#45;&gt;Name : Relu_129
Info : </title>
<path fill="none" stroke="black" stroke-width="0.7" d="M89,-358.76C89,-357.98 89,-357.19 89,-356.38"/>
<polygon fill="black" stroke="black" stroke-width="0.7" points="89,-351.11 91.25,-356.11 89,-353.61 89,-356.11 89,-356.11 89,-356.11 89,-353.61 86.75,-356.11 89,-351.11 89,-351.11"/>
</g>
<!-- Name : Conv_130
Info :  -->
<g id="node74" class="node">
<title>Name : Conv_130
Info : </title>
<path fill="#375588" stroke="#000000" d="M111.67,-324C111.67,-324 66.33,-324 66.33,-324 63.17,-324 60,-320.83 60,-317.67 60,-317.67 60,-311.33 60,-311.33 60,-308.17 63.17,-305 66.33,-305 66.33,-305 111.67,-305 111.67,-305 114.83,-305 118,-308.17 118,-311.33 118,-311.33 118,-317.67 118,-317.67 118,-320.83 114.83,-324 111.67,-324"/>
<text text-anchor="middle" x="89" y="-312" font-family="Times,serif" font-size="10.00" fill="#ffffff">73:Conv</text>
</g>
<!-- Name : Relu_129
Info : &#45;&gt;Name : Conv_130
Info :  -->
<g id="edge76" class="edge">
<title>Name : Relu_129
Info : &#45;&gt;Name : Conv_130
Info : </title>
<path fill="none" stroke="black" stroke-width="0.7" d="M89,-331.76C89,-330.98 89,-330.19 89,-329.38"/>
<polygon fill="black" stroke="black" stroke-width="0.7" points="89,-324.11 91.25,-329.11 89,-326.61 89,-329.11 89,-329.11 89,-329.11 89,-326.61 86.75,-329.11 89,-324.11 89,-324.11"/>
</g>
<!-- Name : Relu_131
Info :  -->
<g id="node75" class="node">
<title>Name : Relu_131
Info : </title>
<path fill="#375588" stroke="#000000" d="M110.17,-297C110.17,-297 67.83,-297 67.83,-297 64.67,-297 61.5,-293.83 61.5,-290.67 61.5,-290.67 61.5,-284.33 61.5,-284.33 61.5,-281.17 64.67,-278 67.83,-278 67.83,-278 110.17,-278 110.17,-278 113.33,-278 116.5,-281.17 116.5,-284.33 116.5,-284.33 116.5,-290.67 116.5,-290.67 116.5,-293.83 113.33,-297 110.17,-297"/>
<text text-anchor="middle" x="89" y="-285" font-family="Times,serif" font-size="10.00" fill="#ffffff">74:Relu</text>
</g>
<!-- Name : Conv_130
Info : &#45;&gt;Name : Relu_131
Info :  -->
<g id="edge77" class="edge">
<title>Name : Conv_130
Info : &#45;&gt;Name : Relu_131
Info : </title>
<path fill="none" stroke="black" stroke-width="0.7" d="M89,-304.76C89,-303.98 89,-303.19 89,-302.38"/>
<polygon fill="black" stroke="black" stroke-width="0.7" points="89,-297.11 91.25,-302.11 89,-299.61 89,-302.11 89,-302.11 89,-302.11 89,-299.61 86.75,-302.11 89,-297.11 89,-297.11"/>
</g>
<!-- Name : Resize_133
Info : INFORMATION &#45;&#45; [TIDL_ResizeLayer] &#160;Any resize ratio which is power of 2 and greater than 4 will be placed by combination of 4x4 resize layer and 2x2 resize layer. For example a 8x8 resize will be replaced by 4x4 resize followed by 2x2 resize. -->
<g id="node76" class="node">
<title>Name : Resize_133
Info : INFORMATION &#45;&#45; [TIDL_ResizeLayer] &#160;Any resize ratio which is power of 2 and greater than 4 will be placed by combination of 4x4 resize layer and 2x2 resize layer. For example a 8x8 resize will be replaced by 4x4 resize followed by 2x2 resize.</title>
<path fill="#375588" stroke="#000000" d="M115.17,-270C115.17,-270 62.83,-270 62.83,-270 59.67,-270 56.5,-266.83 56.5,-263.67 56.5,-263.67 56.5,-257.33 56.5,-257.33 56.5,-254.17 59.67,-251 62.83,-251 62.83,-251 115.17,-251 115.17,-251 118.33,-251 121.5,-254.17 121.5,-257.33 121.5,-257.33 121.5,-263.67 121.5,-263.67 121.5,-266.83 118.33,-270 115.17,-270"/>
<text text-anchor="middle" x="89" y="-258" font-family="Times,serif" font-size="10.00" fill="#ffffff">75:Resize</text>
</g>
<!-- Name : Relu_131
Info : &#45;&gt;Name : Resize_133
Info : INFORMATION &#45;&#45; [TIDL_ResizeLayer] &#160;Any resize ratio which is power of 2 and greater than 4 will be placed by combination of 4x4 resize layer and 2x2 resize layer. For example a 8x8 resize will be replaced by 4x4 resize followed by 2x2 resize. -->
<g id="edge78" class="edge">
<title>Name : Relu_131
Info : &#45;&gt;Name : Resize_133
Info : INFORMATION &#45;&#45; [TIDL_ResizeLayer] &#160;Any resize ratio which is power of 2 and greater than 4 will be placed by combination of 4x4 resize layer and 2x2 resize layer. For example a 8x8 resize will be replaced by 4x4 resize followed by 2x2 resize.</title>
<path fill="none" stroke="black" stroke-width="0.7" d="M89,-277.76C89,-276.98 89,-276.19 89,-275.38"/>
<polygon fill="black" stroke="black" stroke-width="0.7" points="89,-270.11 91.25,-275.11 89,-272.61 89,-275.11 89,-275.11 89,-275.11 89,-272.61 86.75,-275.11 89,-270.11 89,-270.11"/>
</g>
<!-- Name : Resize_133
Info : INFORMATION &#45;&#45; [TIDL_ResizeLayer] &#160;Any resize ratio which is power of 2 and greater than 4 will be placed by combination of 4x4 resize layer and 2x2 resize layer. For example a 8x8 resize will be replaced by 4x4 resize followed by 2x2 resize.&#45;&gt;Name : Add_134
Info :  -->
<g id="edge79" class="edge">
<title>Name : Resize_133
Info : INFORMATION &#45;&#45; [TIDL_ResizeLayer] &#160;Any resize ratio which is power of 2 and greater than 4 will be placed by combination of 4x4 resize layer and 2x2 resize layer. For example a 8x8 resize will be replaced by 4x4 resize followed by 2x2 resize.&#45;&gt;Name : Add_134
Info : </title>
<path fill="none" stroke="black" stroke-width="0.7" d="M92.5,-250.76C92.87,-249.83 93.25,-248.87 93.64,-247.9"/>
<polygon fill="black" stroke="black" stroke-width="0.7" points="95.56,-243.11 95.79,-248.59 94.63,-245.43 93.7,-247.75 93.7,-247.75 93.7,-247.75 94.63,-245.43 91.61,-246.92 95.56,-243.11 95.56,-243.11"/>
</g>
<!-- Name : Conv_135
Info :  -->
<g id="node78" class="node">
<title>Name : Conv_135
Info : </title>
<path fill="#375588" stroke="#000000" d="M121.67,-216C121.67,-216 76.33,-216 76.33,-216 73.17,-216 70,-212.83 70,-209.67 70,-209.67 70,-203.33 70,-203.33 70,-200.17 73.17,-197 76.33,-197 76.33,-197 121.67,-197 121.67,-197 124.83,-197 128,-200.17 128,-203.33 128,-203.33 128,-209.67 128,-209.67 128,-212.83 124.83,-216 121.67,-216"/>
<text text-anchor="middle" x="99" y="-204" font-family="Times,serif" font-size="10.00" fill="#ffffff">77:Conv</text>
</g>
<!-- Name : Add_134
Info : &#45;&gt;Name : Conv_135
Info :  -->
<g id="edge80" class="edge">
<title>Name : Add_134
Info : &#45;&gt;Name : Conv_135
Info : </title>
<path fill="none" stroke="black" stroke-width="0.7" d="M99,-223.76C99,-222.98 99,-222.19 99,-221.38"/>
<polygon fill="black" stroke="black" stroke-width="0.7" points="99,-216.11 101.25,-221.11 99,-218.61 99,-221.11 99,-221.11 99,-221.11 99,-218.61 96.75,-221.11 99,-216.11 99,-216.11"/>
</g>
<!-- Name : Relu_136
Info :  -->
<g id="node79" class="node">
<title>Name : Relu_136
Info : </title>
<path fill="#375588" stroke="#000000" d="M120.17,-189C120.17,-189 77.83,-189 77.83,-189 74.67,-189 71.5,-185.83 71.5,-182.67 71.5,-182.67 71.5,-176.33 71.5,-176.33 71.5,-173.17 74.67,-170 77.83,-170 77.83,-170 120.17,-170 120.17,-170 123.33,-170 126.5,-173.17 126.5,-176.33 126.5,-176.33 126.5,-182.67 126.5,-182.67 126.5,-185.83 123.33,-189 120.17,-189"/>
<text text-anchor="middle" x="99" y="-177" font-family="Times,serif" font-size="10.00" fill="#ffffff">78:Relu</text>
</g>
<!-- Name : Conv_135
Info : &#45;&gt;Name : Relu_136
Info :  -->
<g id="edge81" class="edge">
<title>Name : Conv_135
Info : &#45;&gt;Name : Relu_136
Info : </title>
<path fill="none" stroke="black" stroke-width="0.7" d="M99,-196.76C99,-195.98 99,-195.19 99,-194.38"/>
<polygon fill="black" stroke="black" stroke-width="0.7" points="99,-189.11 101.25,-194.11 99,-191.61 99,-194.11 99,-194.11 99,-194.11 99,-191.61 96.75,-194.11 99,-189.11 99,-189.11"/>
</g>
<!-- Name : Conv_137
Info :  -->
<g id="node80" class="node">
<title>Name : Conv_137
Info : </title>
<path fill="#375588" stroke="#000000" d="M121.67,-162C121.67,-162 76.33,-162 76.33,-162 73.17,-162 70,-158.83 70,-155.67 70,-155.67 70,-149.33 70,-149.33 70,-146.17 73.17,-143 76.33,-143 76.33,-143 121.67,-143 121.67,-143 124.83,-143 128,-146.17 128,-149.33 128,-149.33 128,-155.67 128,-155.67 128,-158.83 124.83,-162 121.67,-162"/>
<text text-anchor="middle" x="99" y="-150" font-family="Times,serif" font-size="10.00" fill="#ffffff">79:Conv</text>
</g>
<!-- Name : Relu_136
Info : &#45;&gt;Name : Conv_137
Info :  -->
<g id="edge82" class="edge">
<title>Name : Relu_136
Info : &#45;&gt;Name : Conv_137
Info : </title>
<path fill="none" stroke="black" stroke-width="0.7" d="M99,-169.76C99,-168.98 99,-168.19 99,-167.38"/>
<polygon fill="black" stroke="black" stroke-width="0.7" points="99,-162.11 101.25,-167.11 99,-164.61 99,-167.11 99,-167.11 99,-167.11 99,-164.61 96.75,-167.11 99,-162.11 99,-162.11"/>
</g>
<!-- Name : Relu_138
Info :  -->
<g id="node81" class="node">
<title>Name : Relu_138
Info : </title>
<path fill="#375588" stroke="#000000" d="M120.17,-135C120.17,-135 77.83,-135 77.83,-135 74.67,-135 71.5,-131.83 71.5,-128.67 71.5,-128.67 71.5,-122.33 71.5,-122.33 71.5,-119.17 74.67,-116 77.83,-116 77.83,-116 120.17,-116 120.17,-116 123.33,-116 126.5,-119.17 126.5,-122.33 126.5,-122.33 126.5,-128.67 126.5,-128.67 126.5,-131.83 123.33,-135 120.17,-135"/>
<text text-anchor="middle" x="99" y="-123" font-family="Times,serif" font-size="10.00" fill="#ffffff">80:Relu</text>
</g>
<!-- Name : Conv_137
Info : &#45;&gt;Name : Relu_138
Info :  -->
<g id="edge83" class="edge">
<title>Name : Conv_137
Info : &#45;&gt;Name : Relu_138
Info : </title>
<path fill="none" stroke="black" stroke-width="0.7" d="M99,-142.76C99,-141.98 99,-141.19 99,-140.38"/>
<polygon fill="black" stroke="black" stroke-width="0.7" points="99,-135.11 101.25,-140.11 99,-137.61 99,-140.11 99,-140.11 99,-140.11 99,-137.61 96.75,-140.11 99,-135.11 99,-135.11"/>
</g>
<!-- Name : Resize_140
Info : INFORMATION &#45;&#45; [TIDL_ResizeLayer] &#160;Any resize ratio which is power of 2 and greater than 4 will be placed by combination of 4x4 resize layer and 2x2 resize layer. For example a 8x8 resize will be replaced by 4x4 resize followed by 2x2 resize. -->
<g id="node82" class="node">
<title>Name : Resize_140
Info : INFORMATION &#45;&#45; [TIDL_ResizeLayer] &#160;Any resize ratio which is power of 2 and greater than 4 will be placed by combination of 4x4 resize layer and 2x2 resize layer. For example a 8x8 resize will be replaced by 4x4 resize followed by 2x2 resize.</title>
<path fill="#375588" stroke="#000000" d="M125.17,-108C125.17,-108 72.83,-108 72.83,-108 69.67,-108 66.5,-104.83 66.5,-101.67 66.5,-101.67 66.5,-95.33 66.5,-95.33 66.5,-92.17 69.67,-89 72.83,-89 72.83,-89 125.17,-89 125.17,-89 128.33,-89 131.5,-92.17 131.5,-95.33 131.5,-95.33 131.5,-101.67 131.5,-101.67 131.5,-104.83 128.33,-108 125.17,-108"/>
<text text-anchor="middle" x="99" y="-96" font-family="Times,serif" font-size="10.00" fill="#ffffff">81:Resize</text>
</g>
<!-- Name : Relu_138
Info : &#45;&gt;Name : Resize_140
Info : INFORMATION &#45;&#45; [TIDL_ResizeLayer] &#160;Any resize ratio which is power of 2 and greater than 4 will be placed by combination of 4x4 resize layer and 2x2 resize layer. For example a 8x8 resize will be replaced by 4x4 resize followed by 2x2 resize. -->
<g id="edge84" class="edge">
<title>Name : Relu_138
Info : &#45;&gt;Name : Resize_140
Info : INFORMATION &#45;&#45; [TIDL_ResizeLayer] &#160;Any resize ratio which is power of 2 and greater than 4 will be placed by combination of 4x4 resize layer and 2x2 resize layer. For example a 8x8 resize will be replaced by 4x4 resize followed by 2x2 resize.</title>
<path fill="none" stroke="black" stroke-width="0.7" d="M99,-115.76C99,-114.98 99,-114.19 99,-113.38"/>
<polygon fill="black" stroke="black" stroke-width="0.7" points="99,-108.11 101.25,-113.11 99,-110.61 99,-113.11 99,-113.11 99,-113.11 99,-110.61 96.75,-113.11 99,-108.11 99,-108.11"/>
</g>
<!-- Name : Conv_141
Info :  -->
<g id="node83" class="node">
<title>Name : Conv_141
Info : </title>
<path fill="#375588" stroke="#000000" d="M121.67,-81C121.67,-81 76.33,-81 76.33,-81 73.17,-81 70,-77.83 70,-74.67 70,-74.67 70,-68.33 70,-68.33 70,-65.17 73.17,-62 76.33,-62 76.33,-62 121.67,-62 121.67,-62 124.83,-62 128,-65.17 128,-68.33 128,-68.33 128,-74.67 128,-74.67 128,-77.83 124.83,-81 121.67,-81"/>
<text text-anchor="middle" x="99" y="-69" font-family="Times,serif" font-size="10.00" fill="#ffffff">82:Conv</text>
</g>
<!-- Name : Resize_140
Info : INFORMATION &#45;&#45; [TIDL_ResizeLayer] &#160;Any resize ratio which is power of 2 and greater than 4 will be placed by combination of 4x4 resize layer and 2x2 resize layer. For example a 8x8 resize will be replaced by 4x4 resize followed by 2x2 resize.&#45;&gt;Name : Conv_141
Info :  -->
<g id="edge85" class="edge">
<title>Name : Resize_140
Info : INFORMATION &#45;&#45; [TIDL_ResizeLayer] &#160;Any resize ratio which is power of 2 and greater than 4 will be placed by combination of 4x4 resize layer and 2x2 resize layer. For example a 8x8 resize will be replaced by 4x4 resize followed by 2x2 resize.&#45;&gt;Name : Conv_141
Info : </title>
<path fill="none" stroke="black" stroke-width="0.7" d="M99,-88.76C99,-87.98 99,-87.19 99,-86.38"/>
<polygon fill="black" stroke="black" stroke-width="0.7" points="99,-81.11 101.25,-86.11 99,-83.61 99,-86.11 99,-86.11 99,-86.11 99,-83.61 96.75,-86.11 99,-81.11 99,-81.11"/>
</g>
<!-- Name : Relu_142
Info :  -->
<g id="node84" class="node">
<title>Name : Relu_142
Info : </title>
<path fill="#375588" stroke="#000000" d="M120.17,-54C120.17,-54 77.83,-54 77.83,-54 74.67,-54 71.5,-50.83 71.5,-47.67 71.5,-47.67 71.5,-41.33 71.5,-41.33 71.5,-38.17 74.67,-35 77.83,-35 77.83,-35 120.17,-35 120.17,-35 123.33,-35 126.5,-38.17 126.5,-41.33 126.5,-41.33 126.5,-47.67 126.5,-47.67 126.5,-50.83 123.33,-54 120.17,-54"/>
<text text-anchor="middle" x="99" y="-42" font-family="Times,serif" font-size="10.00" fill="#ffffff">83:Relu</text>
</g>
<!-- Name : Conv_141
Info : &#45;&gt;Name : Relu_142
Info :  -->
<g id="edge86" class="edge">
<title>Name : Conv_141
Info : &#45;&gt;Name : Relu_142
Info : </title>
<path fill="none" stroke="black" stroke-width="0.7" d="M99,-61.76C99,-60.98 99,-60.19 99,-59.38"/>
<polygon fill="black" stroke="black" stroke-width="0.7" points="99,-54.11 101.25,-59.11 99,-56.61 99,-59.11 99,-59.11 99,-59.11 99,-56.61 96.75,-59.11 99,-54.11 99,-54.11"/>
</g>
<!-- Output : 83 -->
<g id="node86" class="node">
<title>Output : 83</title>
<path fill="#000000" stroke="#000000" d="M119.67,-19C119.67,-19 78.33,-19 78.33,-19 75.17,-19 72,-15.83 72,-12.67 72,-12.67 72,-6.33 72,-6.33 72,-3.17 75.17,0 78.33,0 78.33,0 119.67,0 119.67,0 122.83,0 126,-3.17 126,-6.33 126,-6.33 126,-12.67 126,-12.67 126,-15.83 122.83,-19 119.67,-19"/>
<text text-anchor="middle" x="99" y="-7" font-family="Times,serif" font-size="10.00" fill="#ffffff">Output</text>
</g>
<!-- Name : Relu_142
Info : &#45;&gt;Output : 83 -->
<g id="edge88" class="edge">
<title>Name : Relu_142
Info : &#45;&gt;Output : 83</title>
<path fill="none" stroke="black" stroke-width="0.7" d="M99,-34.83C99,-31.72 99,-28.13 99,-24.68"/>
<polygon fill="black" stroke="black" stroke-width="0.7" points="99,-19.46 101.25,-24.46 99,-21.96 99,-24.46 99,-24.46 99,-24.46 99,-21.96 96.75,-24.46 99,-19.46 99,-19.46"/>
</g>
<!-- Input : 0 -->
<g id="node85" class="node">
<title>Input : 0</title>
<path fill="#000000" stroke="#000000" d="M124.67,-2330C124.67,-2330 83.33,-2330 83.33,-2330 80.17,-2330 77,-2326.83 77,-2323.67 77,-2323.67 77,-2317.33 77,-2317.33 77,-2314.17 80.17,-2311 83.33,-2311 83.33,-2311 124.67,-2311 124.67,-2311 127.83,-2311 131,-2314.17 131,-2317.33 131,-2317.33 131,-2323.67 131,-2323.67 131,-2326.83 127.83,-2330 124.67,-2330"/>
<text text-anchor="middle" x="104" y="-2318" font-family="Times,serif" font-size="10.00" fill="#ffffff">Input</text>
</g>
<!-- Input : 0&#45;&gt;Name : Conv_0
Info :  -->
<g id="edge87" class="edge">
<title>Input : 0&#45;&gt;Name : Conv_0
Info : </title>
<path fill="none" stroke="black" stroke-width="0.7" d="M104,-2310.83C104,-2307.72 104,-2304.13 104,-2300.68"/>
<polygon fill="black" stroke="black" stroke-width="0.7" points="104,-2295.46 106.25,-2300.46 104,-2297.96 104,-2300.46 104,-2300.46 104,-2300.46 104,-2297.96 101.75,-2300.46 104,-2295.46 104,-2295.46"/>
</g>
</g>
</svg>
